<svg width="30" height="29" viewBox="0 0 30 29" fill="none" xmlns="http://www.w3.org/2000/svg">
<path fill-rule="evenodd" clip-rule="evenodd" d="M22.5367 4.6445C24.7115 4.51348 25.176 5.32627 23.9301 7.08289C22.8484 7.3585 22.229 6.93275 22.0723 5.80564C22.1656 5.38758 22.3205 5.00055 22.5367 4.6445Z" fill="#FEB98C"/>
<path fill-rule="evenodd" clip-rule="evenodd" d="M5.58408 4.6445C7.75878 4.51348 8.22323 5.32627 6.97745 7.08289C5.89576 7.3585 5.2765 6.93275 5.11963 5.80564C5.21308 5.38758 5.3679 5.00055 5.58408 4.6445Z" fill="#FEBA8C"/>
<path fill-rule="evenodd" clip-rule="evenodd" d="M14.1767 0C19.4187 0.487864 21.5861 3.35202 20.679 8.59242C22.2291 8.5538 23.7774 8.59251 25.3236 8.70853C28.8102 9.91349 30.3197 12.3519 29.852 16.0237C29.1386 18.3495 27.6291 19.8589 25.3236 20.5521C23.7774 20.6682 22.2291 20.7068 20.679 20.6682C21.4131 26.9402 18.7037 29.6109 12.5511 28.6801C9.55012 26.8469 8.46641 24.1763 9.29987 20.6682C7.67245 20.7068 6.04685 20.6682 4.4231 20.5521C0.974913 19.116 -0.457141 16.5228 0.126888 12.7725C1.91121 8.99745 4.89148 7.56539 9.06765 8.4763C8.38931 4.13402 10.0923 1.30858 14.1767 0Z" fill="#6BABB5"/>
<path fill-rule="evenodd" clip-rule="evenodd" d="M18.8208 9.52124C18.8761 9.96349 19.1083 10.2731 19.5175 10.4501C19.7247 11.0181 20.073 11.1729 20.5625 10.9146C21.3828 11.5356 22.2729 11.6904 23.2332 11.3791C25.0529 11.8164 26.5624 12.7453 27.7616 14.1658C27.8693 14.0278 27.9081 13.8729 27.8777 13.7013C28.0946 13.9493 28.1722 14.2589 28.1099 14.6302C27.7309 15.692 27.1116 16.6209 26.2521 17.417C25.7849 17.586 25.3204 17.7797 24.8587 17.9975C17.4741 18.3765 17.4741 18.57 24.8587 18.5781C23.0437 18.8085 21.1858 18.886 19.2853 18.8103C16.2784 16.1908 13.4143 13.4041 10.6929 10.4501C10.7585 10.2669 10.8747 10.1121 11.0412 9.98569C11.1572 8.43945 11.1959 6.89126 11.1573 5.34114C12.177 4.80628 13.222 4.49665 14.2924 4.41223C15.1823 4.45961 15.879 4.84664 16.3824 5.57337C16.4598 5.49597 16.5373 5.41854 16.6147 5.34114C16.7429 5.96758 17.0912 6.43203 17.6597 6.73451C17.8745 6.46965 18.0682 6.46965 18.2403 6.73451C18.4792 7.68035 18.6727 8.60926 18.8208 9.52124Z" fill="#FDDDC4"/>
<path fill-rule="evenodd" clip-rule="evenodd" d="M18.821 6.27008C18.821 7.35381 18.821 8.43753 18.821 9.52126C18.6729 8.60928 18.4794 7.68037 18.2405 6.73453C18.0684 6.46968 17.8747 6.46968 17.6599 6.73453C17.0914 6.43206 16.7431 5.9676 16.6149 5.34117C16.5375 5.41857 16.46 5.49599 16.3827 5.57339C15.8792 4.84666 15.1825 4.45963 14.2926 4.41226C13.2222 4.49667 12.1772 4.8063 11.1575 5.34117C11.1329 4.61789 11.3651 3.99861 11.8542 3.48335C12.1671 3.32748 12.438 3.32748 12.667 3.48335C13.5299 2.71997 14.4974 2.60385 15.5699 3.13501C16.9502 3.9358 18.034 4.98082 18.821 6.27008Z" fill="#FCE3CC"/>
<path fill-rule="evenodd" clip-rule="evenodd" d="M18.8208 6.27005C18.0338 4.98079 16.95 3.93577 15.5696 3.13498C14.4972 2.60383 13.5297 2.71994 12.6668 3.48332C12.4378 3.32745 12.1668 3.32745 11.854 3.48332C13.0209 2.15974 14.4916 1.73397 16.2663 2.20607C18.1318 2.94462 18.9834 4.2993 18.8208 6.27005Z" fill="#FAF0DB"/>
<path fill-rule="evenodd" clip-rule="evenodd" d="M4.88722 10.6824C11.6525 10.6907 11.6525 10.8842 4.88722 11.2629C4.12519 11.5673 3.4285 11.993 2.79717 12.5402C2.65628 12.5115 2.57888 12.4341 2.56494 12.308C3.08782 11.3967 3.86193 10.8548 4.88722 10.6824Z" fill="#EEF0DD"/>
<path fill-rule="evenodd" clip-rule="evenodd" d="M19.5176 10.4501C21.5496 10.3549 23.5621 10.4711 25.5555 10.7985C26.9052 11.3325 27.6794 12.3002 27.8778 13.7013C27.9082 13.8729 27.8694 14.0278 27.7617 14.1658C26.5624 12.7452 25.053 11.8164 23.2332 11.379C22.273 11.6904 21.3828 11.5356 20.5626 10.9146C20.0731 11.1729 19.7247 11.0181 19.5176 10.4501Z" fill="#F6EFDB"/>
<path fill-rule="evenodd" clip-rule="evenodd" d="M4.88748 10.6824C6.78011 10.4519 8.71533 10.3745 10.6932 10.4502C13.4146 13.4041 16.2787 16.1909 19.2856 18.8104C19.2199 18.9936 19.1037 19.1485 18.9372 19.2748C18.8211 20.7437 18.7826 22.2144 18.8211 23.6872C17.5311 26.3032 15.5184 27.0387 12.7832 25.8933C11.9971 25.306 11.4553 24.5706 11.1576 23.6872C11.1962 22.2144 11.1575 20.7437 11.0415 19.2748C10.875 19.1485 10.7588 18.9936 10.6932 18.8104C10.7131 18.5791 10.6357 18.3856 10.4609 18.2298C8.35352 18.2101 6.26347 18.0552 4.1908 17.7654C2.58803 16.6878 1.89135 15.1784 2.10075 13.2369C2.13781 12.8531 2.29264 12.5434 2.5652 12.308C2.57914 12.4341 2.65654 12.5115 2.79743 12.5403C3.42876 11.9931 4.12545 11.5673 4.88748 11.263C11.6528 10.8843 11.6528 10.6907 4.88748 10.6824Z" fill="#C2EBE1"/>
<path fill-rule="evenodd" clip-rule="evenodd" d="M28.1103 14.6302C28.0564 15.9765 27.5146 17.06 26.4847 17.8814C26.5246 17.6511 26.447 17.4964 26.2524 17.417C27.1119 16.6209 27.7313 15.692 28.1103 14.6302Z" fill="#F1AD7A"/>
<path fill-rule="evenodd" clip-rule="evenodd" d="M2.10047 13.2369C1.89107 15.1784 2.58776 16.6878 4.19052 17.7654C6.2632 18.0552 8.35325 18.2101 10.4607 18.2298C10.6354 18.3857 10.7128 18.5791 10.6929 18.8104C8.67876 18.8489 6.66614 18.8104 4.65498 18.6943C2.25509 17.5622 1.40358 15.7431 2.10047 13.2369Z" fill="#96CFD6"/>
<path fill-rule="evenodd" clip-rule="evenodd" d="M26.2521 17.417C26.4467 17.4964 26.5243 17.6511 26.4844 17.8814C26.0371 18.2978 25.4953 18.5301 24.8588 18.5781C17.4742 18.57 17.4742 18.3766 24.8588 17.9976C25.3204 17.7797 25.7849 17.5861 26.2521 17.417Z" fill="#FCA864"/>
<path fill-rule="evenodd" clip-rule="evenodd" d="M22.7689 22.2938C24.6576 22.2659 25.1221 23.0787 24.1623 24.7322C22.0518 24.8311 21.5874 24.0183 22.7689 22.2938Z" fill="#FEB98A"/>
<path fill-rule="evenodd" clip-rule="evenodd" d="M5.81631 22.2937C7.70411 22.2459 8.16857 23.0587 7.20968 24.7321C6.01266 25.1216 5.31598 24.6959 5.11963 23.4549C5.2572 23.0083 5.48943 22.6214 5.81631 22.2937Z" fill="#FEB989"/>
<path fill-rule="evenodd" clip-rule="evenodd" d="M11.1577 23.6871C11.4554 24.5705 11.9972 25.306 12.7833 25.8933C15.5185 27.0386 17.5312 26.3032 18.8212 23.6871C18.1951 26.5579 16.4149 27.6805 13.48 27.0544C12.0417 26.3824 11.2677 25.26 11.1577 23.6871Z" fill="#99D2DA"/>
</svg>
