<svg width="56" height="40" viewBox="0 0 56 40" fill="none" xmlns="http://www.w3.org/2000/svg">
<path d="M34.0799 0.00382712C34.2254 0.00193321 34.2254 0.00193321 34.3738 1.04252e-06C35.0055 -0.000331424 35.5626 0.0788374 36.1662 0.263388C36.2393 0.285269 36.3123 0.30715 36.3876 0.329694C37.7421 0.753734 38.8267 1.7294 39.7999 2.7243C39.9286 2.85033 40.0624 2.9653 40.2017 3.07938C40.402 3.24718 40.5716 3.42352 40.7404 3.62299C40.9929 3.92101 41.2726 4.17051 41.5674 4.42585C41.7774 4.61641 41.9444 4.82192 42.1214 5.04322C42.3607 5.29611 42.6157 5.52709 42.8756 5.75824C43.2438 6.08694 43.5919 6.43172 43.9365 6.78485C44.1033 6.94799 44.2704 7.09999 44.4472 7.25144C44.7819 7.54322 45.0956 7.85199 45.4076 8.16775C45.4643 8.22481 45.5211 8.28186 45.5796 8.34065C45.8196 8.58192 46.0591 8.82365 46.2987 9.06535C46.4749 9.24299 46.6513 9.42039 46.8278 9.59778C46.8809 9.65151 46.934 9.70523 46.9886 9.76058C47.2912 10.0647 47.6028 10.3517 47.9276 10.6319C48.1554 10.8328 48.3684 11.0469 48.5814 11.2632C48.6485 11.3308 48.6485 11.3308 48.717 11.3998C48.858 11.5417 48.9987 11.6838 49.1394 11.8261C49.3253 12.0142 49.5116 12.202 49.698 12.3896C49.7395 12.4317 49.7809 12.4739 49.8237 12.5173C50.076 12.7712 50.3384 13.0065 50.6119 13.2375C50.7951 13.3962 50.9635 13.5674 51.1326 13.741C51.2064 13.8153 51.2802 13.8896 51.3542 13.9638C51.3929 14.0027 51.4316 14.0417 51.4715 14.0819C51.6469 14.2584 51.8225 14.4346 51.9982 14.6108C52.0901 14.7031 52.1819 14.7955 52.2737 14.888C52.7281 15.3456 53.1808 15.7979 53.6715 16.217C54.4295 16.8813 55.1293 17.9929 55.2718 19.0108C55.3694 20.5355 55.1523 21.8121 54.1365 23.0206C53.6379 23.5701 53.11 24.0811 52.5496 24.5672C52.219 24.8586 51.9017 25.1645 51.5821 25.4679C51.3612 25.6764 51.1429 25.8783 50.9049 26.0673C50.7303 26.1914 50.7303 26.1914 50.638 26.386C50.4757 26.6384 50.2869 26.7682 50.0451 26.9412C49.4981 27.3381 49.037 27.8243 48.5624 28.3027C48.4184 28.4474 48.2745 28.592 48.1305 28.7367C48.0591 28.8088 47.9876 28.881 47.914 28.9553C47.6095 29.2608 47.3064 29.5635 46.9787 29.8441C46.5784 30.1872 46.2134 30.5653 45.8434 30.9405C45.7024 31.0836 45.5612 31.2264 45.4198 31.3691C45.3582 31.4316 45.2965 31.4942 45.233 31.5587C45.0753 31.7106 44.9176 31.8522 44.7512 31.9936C44.2943 32.3903 43.8732 32.8238 43.447 33.2527C43.289 33.4118 43.1307 33.5706 42.9723 33.7293C42.6362 34.0663 42.3005 34.4036 41.9647 34.7409C41.5753 35.1322 41.1857 35.5233 40.7958 35.9142C40.6408 36.0697 40.486 36.2254 40.3313 36.3812C39.8704 36.844 39.4086 37.2973 38.9088 37.7185C38.796 37.8229 38.6833 37.9273 38.5708 38.0319C37.1381 39.2941 35.2869 39.7211 33.412 39.619C31.5865 39.4561 29.9712 38.6076 28.7896 37.2061C27.8573 36.0297 27.2193 34.6041 27.2258 33.0837C27.2259 33.0065 27.2259 33.0065 27.2261 32.9277C27.2265 32.7648 27.2275 32.602 27.2285 32.4391C27.2289 32.328 27.2293 32.2169 27.2296 32.1058C27.2305 31.8349 27.2318 31.564 27.2334 31.2931C27.19 31.2932 27.1465 31.2933 27.1017 31.2934C24.5216 31.2987 21.9416 31.3027 19.3615 31.3052C19.0512 31.3054 18.7409 31.3057 18.4306 31.3061C18.3688 31.3061 18.307 31.3062 18.2434 31.3062C17.2453 31.3073 16.2472 31.3091 15.249 31.3113C14.2237 31.3135 13.1983 31.3148 12.1729 31.3153C11.541 31.3156 10.9091 31.3166 10.2772 31.3185C9.79142 31.3199 9.3056 31.3201 8.81977 31.3197C8.62141 31.3198 8.42305 31.3203 8.22469 31.3212C5.9548 31.331 3.95988 30.9496 2.28772 29.3091C2.21934 29.2398 2.15096 29.1705 2.0805 29.0991C2.02262 29.0411 1.96475 28.9832 1.90512 28.9234C0.702345 27.6483 -0.00936951 25.8579 0.00263813 24.114C0.0020889 24.0135 0.00153967 23.9131 0.00097379 23.8096C-0.000437678 23.5376 9.24376e-05 23.2656 0.00109336 22.9936C0.00189654 22.7064 0.00114753 22.4193 0.000658139 22.1321C9.04599e-05 21.6499 0.00083242 21.1677 0.00233205 20.6856C0.00403505 20.1317 0.00348722 19.5778 0.00176053 19.0239C0.000328111 18.5449 0.00014173 18.0659 0.000957051 17.5868C0.00144052 17.3022 0.00152641 17.0177 0.000476401 16.7331C-0.00415409 15.2807 0.011651 13.9162 0.679853 12.5901C0.710168 12.5284 0.740483 12.4666 0.771717 12.4031C1.68943 10.5904 3.21868 9.19174 5.15728 8.52954C6.2691 8.16857 6.26909 8.16857 6.83983 8.16668C6.91267 8.16625 6.98551 8.16582 7.06055 8.16538C7.1399 8.1653 7.21925 8.16522 7.301 8.16515C7.38581 8.16476 7.47062 8.16437 7.558 8.16397C7.84266 8.16277 8.12732 8.16211 8.41199 8.16146C8.61585 8.1607 8.81971 8.15992 9.02357 8.1591C9.46273 8.1574 9.90188 8.15598 10.341 8.15475C10.976 8.15297 11.6109 8.15076 12.2458 8.14845C13.276 8.14472 14.3062 8.14133 15.3363 8.13815C16.337 8.13507 17.3377 8.13182 18.3384 8.12836C18.4309 8.12804 18.4309 8.12804 18.5253 8.12771C18.8348 8.12664 19.1442 8.12557 19.4537 8.12449C22.0208 8.11556 24.5879 8.10719 27.1551 8.09919C27.1562 8.03372 27.1573 7.96825 27.1585 7.9008C27.1634 7.65221 27.1692 7.40366 27.1756 7.1551C27.1794 6.99691 27.1822 6.83869 27.1849 6.68048C27.2404 4.63257 28.0082 3.02617 29.4862 1.62486C30.8137 0.466857 32.3431 -0.000667732 34.0799 0.00382712ZM31.5171 4.6851C30.7496 5.59929 30.5804 6.53271 30.5814 7.70097C30.5798 7.89651 30.5782 8.09204 30.5765 8.28758C30.5747 8.59349 30.5734 8.89938 30.573 9.20529C30.5722 9.50214 30.5696 9.79894 30.5667 10.0958C30.5671 10.1871 30.5675 10.2785 30.5679 10.3726C30.5621 10.8503 30.5559 11.183 30.211 11.5469C29.8283 11.8705 29.3936 11.8146 28.9187 11.8117C28.7805 11.8122 28.7805 11.8122 28.6395 11.8127C28.384 11.8135 28.1285 11.8132 27.873 11.8125C27.5973 11.8119 27.3217 11.8128 27.046 11.8134C26.5682 11.8144 26.0905 11.8146 25.6127 11.8142C24.9209 11.8137 24.2291 11.8146 23.5373 11.816C22.4136 11.8183 21.2899 11.8197 20.1661 11.8203C20.0989 11.8203 20.0316 11.8204 19.9623 11.8204C19.4852 11.8207 19.008 11.821 18.5308 11.8212C17.9866 11.8215 17.4425 11.8217 16.8984 11.8221C16.7979 11.8221 16.7979 11.8221 16.6953 11.8222C15.5764 11.8229 14.4576 11.8245 13.3387 11.8267C12.6491 11.8281 11.9595 11.8286 11.2698 11.828C10.7967 11.8277 10.3237 11.8282 9.85059 11.8294C9.57798 11.83 9.30539 11.8302 9.03279 11.8294C8.73649 11.8288 8.44022 11.8296 8.14392 11.8307C8.01626 11.8299 8.01626 11.8299 7.88602 11.8291C6.75187 11.8375 5.63802 12.1878 4.79304 12.9739C3.55694 14.3414 3.45395 15.6631 3.45697 17.4305C3.45661 17.6145 3.4562 17.7985 3.45572 17.9825C3.45503 18.367 3.45521 18.7515 3.456 19.136C3.45689 19.6262 3.45531 20.1164 3.45303 20.6066C3.45158 20.9863 3.45161 21.366 3.45205 21.7457C3.45207 21.9263 3.4516 22.1069 3.45062 22.2875C3.44428 23.651 3.51014 24.7529 4.35288 25.8864C4.38995 25.937 4.42702 25.9875 4.46522 26.0395C5.12705 26.8719 6.12683 27.487 7.17377 27.6887C7.48218 27.7108 7.78964 27.709 8.09873 27.7073C8.1916 27.7075 8.28448 27.7076 8.38017 27.7077C8.63696 27.7079 8.89374 27.7074 9.15053 27.7066C9.42786 27.7059 9.70519 27.7062 9.98252 27.7063C10.4628 27.7064 10.9431 27.7061 11.4234 27.7054C12.1826 27.7044 12.9418 27.705 13.701 27.7058C13.9609 27.7061 14.2208 27.7064 14.4807 27.7066C14.5782 27.7067 14.5782 27.7067 14.6775 27.7068C15.4163 27.7075 16.155 27.7079 16.8937 27.7082C16.9612 27.7082 17.0287 27.7082 17.0982 27.7082C18.1928 27.7085 19.2874 27.7077 20.382 27.7065C21.5063 27.7053 22.6306 27.7059 23.7548 27.7081C24.4481 27.7094 25.1413 27.7092 25.8346 27.707C26.3095 27.7057 26.7844 27.7061 27.2594 27.7078C27.5334 27.7088 27.8073 27.7089 28.0813 27.707C28.3785 27.7054 28.6755 27.7066 28.9726 27.7086C29.1023 27.7068 29.1023 27.7068 29.2346 27.705C29.7228 27.7118 29.9992 27.7724 30.351 28.1211C30.5353 28.3461 30.5345 28.5064 30.5356 28.7911C30.5361 28.8741 30.5367 28.9571 30.5372 29.0426C30.5376 29.1329 30.5379 29.2231 30.5382 29.3161C30.54 29.5074 30.5419 29.6986 30.5439 29.8899C30.5466 30.1913 30.5489 30.4927 30.55 30.7941C30.5512 31.085 30.5544 31.3759 30.5578 31.6669C30.5576 31.7997 30.5576 31.7997 30.5574 31.9351C30.5736 33.0086 30.9033 34.0046 31.6411 34.7997C32.3436 35.4573 33.1592 35.8053 34.1142 35.7938C34.1834 35.7932 34.2525 35.7926 34.3237 35.792C34.8578 35.7786 35.2976 35.6972 35.7744 35.4461C35.8684 35.4004 35.8684 35.4004 35.9642 35.3537C36.8804 34.8606 37.6095 34.0144 38.3308 33.2787C38.5573 33.0489 38.7861 32.8283 39.0321 32.6194C39.5407 32.1806 40.0038 31.692 40.4759 31.2148C41.5682 30.1105 41.5682 30.1105 42.0488 29.7025C42.3805 29.4099 42.687 29.09 42.9981 28.7759C43.101 28.6724 43.101 28.6724 43.2061 28.5668C43.5488 28.2223 43.5488 28.2223 43.8906 27.8768C44.0826 27.6828 44.2809 27.5003 44.4869 27.3214C44.9558 26.9032 45.3953 26.4564 45.8358 26.0087C46.1018 25.7396 46.3682 25.4768 46.6558 25.2308C47.0734 24.8718 47.4552 24.4761 47.8416 24.0842C48.2755 23.6441 48.7091 23.2096 49.1791 22.8076C49.4666 22.5532 49.7324 22.2766 50.0013 22.0028C50.626 21.3669 50.626 21.3669 50.9633 21.0889C51.3349 20.7765 51.5547 20.3912 51.6312 19.9083C51.6185 19.3552 51.2683 18.9786 50.8975 18.5992C50.8069 18.5202 50.7156 18.4419 50.624 18.364C50.2096 18.0029 49.8238 17.6142 49.4361 17.2249C49.354 17.1429 49.272 17.0608 49.1899 16.9788C48.9687 16.7577 48.7478 16.5363 48.527 16.3149C48.295 16.0825 48.0629 15.8503 47.8307 15.618C47.3915 15.1785 46.9524 14.7388 46.5135 14.2991C46.015 13.7997 45.5163 13.3006 45.0176 12.8015C44.165 11.9482 43.3125 11.0947 42.4602 10.2411C42.39 10.1708 42.3199 10.1005 42.2476 10.0281C42.1869 9.96731 42.1263 9.90656 42.0638 9.84396C41.9354 9.71548 41.807 9.58711 41.6785 9.4588C41.5597 9.33979 41.4417 9.21996 41.3247 9.09917C41.2725 9.04553 41.2203 8.9919 41.1665 8.93664C41.0872 8.85467 41.0872 8.85467 41.0064 8.77104C40.8791 8.63033 40.8791 8.63033 40.711 8.64769C40.711 8.59598 40.711 8.54426 40.711 8.49098C40.5981 8.37692 40.5981 8.37692 40.4479 8.25745C40.0346 7.90575 39.6589 7.52126 39.2791 7.1341C39.2029 7.05691 39.1266 6.97977 39.0503 6.90266C38.7293 6.57841 38.4086 6.25395 38.0892 5.92821C37.8926 5.72773 37.6951 5.52804 37.4972 5.32883C37.387 5.21751 37.2776 5.10535 37.1683 4.99317C36.2944 4.11568 35.373 3.6056 34.124 3.5985C33.0366 3.61466 32.2898 3.88002 31.5171 4.6851Z" fill="#688895"/>
<path d="M36.5593 4.41663C36.8898 4.70752 37.1968 5.01926 37.5045 5.33396C37.5925 5.42278 37.6806 5.51151 37.7688 5.60018C37.9987 5.83172 38.2277 6.06417 38.4564 6.29685C38.8245 6.67083 39.194 7.04331 39.5634 7.41597C39.692 7.546 39.8203 7.67635 39.9486 7.80677C40.0268 7.88605 40.1051 7.96533 40.1833 8.0446C40.2516 8.11401 40.3199 8.18341 40.3902 8.25491C40.5425 8.41602 40.5425 8.41602 40.7122 8.49124C40.7122 8.54296 40.7122 8.59467 40.7122 8.64796C40.7576 8.66765 40.8029 8.68735 40.8497 8.70764C41.0478 8.81689 41.1772 8.94085 41.3342 9.10341C41.385 9.15563 41.4358 9.20786 41.4882 9.26166C41.5424 9.31772 41.5966 9.37378 41.6525 9.43154C41.783 9.56226 41.9136 9.69284 42.0443 9.82333C50.7421 18.5211 50.7421 18.5211 50.9536 18.7328C51.0547 18.8337 51.1559 18.9345 51.2578 19.0347C51.5679 19.3674 51.5256 19.424 51.5256 19.9315C35.6746 19.9315 19.8236 19.9315 3.49219 19.9315C3.49219 14.3811 3.49219 14.3811 4.60297 13.1682C5.63894 12.2099 6.74394 11.8217 8.14463 11.8315C8.23758 11.8312 8.33053 11.8309 8.42629 11.8306C8.68146 11.83 8.9366 11.8304 9.19177 11.8313C9.46802 11.832 9.74427 11.8313 10.0205 11.8308C10.4983 11.8301 10.9761 11.8302 11.4539 11.8308C12.1452 11.8317 12.8365 11.831 13.5278 11.8299C14.6503 11.828 15.7728 11.827 16.8953 11.8266C16.9624 11.8266 17.0294 11.8266 17.0985 11.8266C17.8475 11.8264 18.5965 11.8263 19.3454 11.8264C19.6174 11.8264 19.8895 11.8265 20.1615 11.8265C20.2286 11.8265 20.2957 11.8265 20.3649 11.8265C21.484 11.8266 22.603 11.8254 23.7221 11.8233C24.4118 11.822 25.1015 11.8219 25.7913 11.8231C26.2634 11.8238 26.7356 11.8234 27.2077 11.8222C27.4801 11.8215 27.7525 11.8213 28.0249 11.8225C28.3201 11.8236 28.6153 11.8227 28.9106 11.8214C29.0397 11.8225 29.0397 11.8225 29.1715 11.8237C29.6475 11.8192 29.9294 11.7891 30.2906 11.4688C30.5041 11.1914 30.5551 10.9915 30.5558 10.6447C30.557 10.5175 30.557 10.5175 30.5582 10.3878C30.558 10.2967 30.5578 10.2057 30.5575 10.112C30.5588 9.97005 30.5588 9.97005 30.5601 9.82526C30.5628 9.52261 30.564 9.21998 30.5649 8.91731C30.566 8.5205 30.5687 8.12374 30.5722 7.72694C30.572 7.63704 30.5717 7.54714 30.5715 7.45452C30.5823 6.27927 30.908 5.34944 31.7084 4.4806C33.0692 3.18399 35.1099 3.39508 36.5593 4.41663Z" fill="#FDF9EE"/>
<path d="M51.5255 19.6177C51.5514 19.6177 51.5772 19.6177 51.6039 19.6177C51.581 20.3375 51.3516 20.7379 50.839 21.2403C50.6688 21.3984 50.4959 21.5533 50.3226 21.708C49.9614 22.0325 49.6224 22.3787 49.2827 22.7255C49.0513 22.9601 48.817 23.1852 48.5666 23.3994C48.1466 23.7618 47.7617 24.1596 47.3726 24.5543C46.9369 24.9961 46.5016 25.4326 46.0298 25.8362C45.7728 26.0624 45.5356 26.3081 45.2961 26.5524C44.9466 26.9057 44.5981 27.2538 44.2156 27.5717C43.9155 27.8334 43.6432 28.127 43.3627 28.4094C43.1945 28.5787 43.0261 28.7477 42.8576 28.9168C42.7695 29.0053 42.6815 29.0939 42.5935 29.1825C41.7656 30.0166 41.7656 30.0166 41.4238 30.3069C40.9225 30.7343 40.4698 31.2169 40.0069 31.6849C38.9105 32.7932 38.9105 32.7932 38.4246 33.2055C38.2046 33.3996 38.0025 33.6103 37.7981 33.8205C36.8387 34.8066 35.8236 35.746 34.3765 35.7864C33.195 35.8005 32.4112 35.495 31.5494 34.675C30.7551 33.8397 30.5813 32.8248 30.5853 31.7161C30.5841 31.5239 30.5828 31.3316 30.5814 31.1394C30.5801 30.8383 30.5795 30.5373 30.58 30.2362C30.5802 29.9442 30.578 29.6524 30.5755 29.3605C30.5767 29.2256 30.5767 29.2256 30.5779 29.0881C30.5787 28.5612 30.5787 28.5612 30.3413 28.1081C30.0528 27.8517 29.8992 27.7474 29.5175 27.7473C29.399 27.7467 29.399 27.7467 29.278 27.7461C29.1909 27.7465 29.1038 27.7469 29.0141 27.7473C28.9218 27.747 28.8294 27.7468 28.7343 27.7466C28.4776 27.7461 28.2208 27.7463 27.9641 27.7467C27.6873 27.7471 27.4106 27.7466 27.1338 27.7461C26.654 27.7454 26.1741 27.7453 25.6942 27.7455C24.9994 27.7457 24.3046 27.7448 23.6098 27.7435C22.4812 27.7415 21.3526 27.7399 20.224 27.7389C20.1564 27.7388 20.0888 27.7388 20.0192 27.7387C19.0614 27.7378 18.1035 27.7374 17.1457 27.7372C17.0447 27.7371 17.0447 27.7371 16.9416 27.7371C16.8743 27.7371 16.807 27.7371 16.7377 27.7371C15.6142 27.7368 14.4907 27.7353 13.3673 27.7328C12.6746 27.7313 11.982 27.7309 11.2894 27.7317C10.8142 27.7322 10.3389 27.7316 9.86369 27.73C9.58981 27.7292 9.31596 27.7289 9.04209 27.7299C8.74439 27.7308 8.44676 27.7297 8.14907 27.7282C8.06356 27.7289 7.97804 27.7297 7.88993 27.7304C6.74876 27.7191 5.66932 27.241 4.83977 26.4606C3.01694 24.5309 3.49219 22.7597 3.49219 19.9315C19.3432 19.9315 35.1943 19.9315 51.5256 19.9315C51.5256 19.8281 51.5255 19.7243 51.5255 19.6177Z" fill="#D4EBE5"/>
</svg>
