<svg width="422" height="318" viewBox="0 0 422 318" fill="none" xmlns="http://www.w3.org/2000/svg">
<path d="M213.58 105.206C218.045 107.39 220.604 109.416 223.579 113.485C224.111 114.202 224.111 114.202 224.653 114.933C225.849 116.556 227.027 118.191 228.203 119.829C229.114 121.09 230.026 122.351 230.937 123.612C232.374 125.601 233.809 127.591 235.24 129.584C239.003 134.815 242.886 139.932 246.845 145.016C248.101 146.641 249.341 148.278 250.579 149.916C255.808 156.825 261.164 163.592 266.707 170.251C270.681 175.044 274.474 179.956 278.23 184.921C281.96 189.837 285.82 194.636 289.729 199.41C292.645 202.972 295.496 206.574 298.303 210.223C300.37 212.85 302.557 215.364 304.754 217.883C307.352 216.732 309.023 215.502 310.916 213.391C311.402 212.857 311.887 212.323 312.388 211.773C313.133 210.939 313.133 210.939 313.893 210.088C314.887 208.983 315.884 207.88 316.883 206.779C317.321 206.29 317.758 205.801 318.209 205.297C320.113 203.378 321.139 203.258 323.892 203.046C329.697 203.433 332.72 206.014 336.579 210.142C337.831 211.38 339.086 212.616 340.342 213.851C343.316 216.82 346.105 219.885 348.839 223.074C350.964 225.466 353.249 227.681 355.528 229.925C357.698 232.129 359.695 234.461 361.71 236.806C363.785 239.135 365.998 241.306 368.242 243.472C369.855 245.131 371.358 246.825 372.865 248.579C376.35 252.591 380.098 256.305 383.886 260.029C387.586 263.667 391.261 267.283 394.644 271.221C397.982 275.106 401.623 278.65 405.281 282.231C421.475 298.242 421.475 298.242 422 304.541C421.951 309.037 419.81 311.595 416.947 314.916C413.944 317.397 409.94 317.349 406.219 317.305C401.27 316.32 398.41 312.61 395.067 309.057C393.848 307.863 392.629 306.669 391.406 305.478C388.398 302.529 385.486 299.525 382.757 296.316C379.87 292.926 376.727 289.823 373.564 286.693C367.236 280.431 367.236 280.431 364.586 277.286C361.096 273.152 357.181 269.429 353.34 265.625C350.041 262.347 346.871 259.022 343.87 255.467C342.015 253.337 339.992 251.391 337.976 249.415C336.668 248.079 335.49 246.704 334.321 245.246C330.695 240.847 330.695 240.847 325.501 239.091C322.171 239.457 321.253 240.336 318.949 242.719C318.256 243.425 317.562 244.132 316.848 244.859C315.784 245.982 315.784 245.982 314.699 247.127C313.993 247.849 313.288 248.571 312.561 249.315C308.841 253.144 305.244 257.056 301.786 261.123C298.61 264.666 294.895 268.47 290.132 269.491C286.306 269.54 283.309 269.161 279.971 267.233C276.628 263.603 274.946 260.674 274.004 255.89C274.198 251.572 277.019 248.851 279.773 245.746C282.204 242.897 283.876 240.67 284.558 236.94C283.919 233.059 281.969 230.792 279.541 227.774C279.073 227.172 278.604 226.57 278.122 225.95C277.154 224.709 276.18 223.473 275.201 222.241C273.919 220.627 272.652 219.003 271.39 217.372C266.786 211.438 262.055 205.608 257.308 199.789C253.895 195.6 250.54 191.37 247.212 187.114C243.022 181.76 238.77 176.457 234.516 171.154C232.928 169.172 231.345 167.186 229.762 165.2C222.854 156.567 222.854 156.567 215.677 148.159C213.58 145.632 213.58 145.632 213.58 143.912C210.9 143.928 209.048 144.207 207.017 146.034C205.502 147.792 204.076 149.594 202.668 151.438C201.614 152.776 200.559 154.114 199.503 155.45C198.981 156.117 198.459 156.783 197.921 157.47C196.5 159.242 195.036 160.948 193.522 162.64C193.086 163.13 192.65 163.621 192.2 164.126C191.022 165.441 189.834 166.749 188.647 168.056C186.636 170.985 186.216 173.075 186.056 176.597C187.671 178.212 189.998 177.546 192.149 177.575C203.675 177.807 203.675 177.807 208.121 182.11C208.503 182.562 208.886 183.013 209.28 183.478C210.131 184.409 210.131 184.409 211 185.359C212.412 189.331 212.602 193.091 211.86 197.24C209.856 200.892 207.159 203.477 203.259 204.981C201.331 205.228 199.393 205.402 197.453 205.519C195.943 205.615 195.943 205.615 194.402 205.714C193.635 205.756 192.868 205.798 192.077 205.841C195.583 210.815 199.511 215.267 203.632 219.738C206.374 222.777 208.941 225.935 211.514 229.118C215.121 233.529 218.858 237.828 222.578 242.144C223.87 243.649 225.152 245.162 226.432 246.677C231.45 252.606 236.623 258.341 241.96 263.985C244.86 267.068 247.608 270.206 250.243 273.523C253.452 277.546 256.951 281.13 260.614 284.73C264.049 288.111 267.298 291.564 270.349 295.294C271.387 296.492 271.387 296.492 272.445 297.714C274.436 301.774 274.554 305.482 273.789 309.917C272.368 312.858 270.343 314.555 267.553 316.26C262.998 317.295 259.075 317.595 254.813 315.507C249.762 311.209 245.295 306.45 240.973 301.43C239.18 299.36 237.35 297.326 235.514 295.294C233.25 292.787 231.004 290.269 228.794 287.715C226.553 285.136 224.247 282.627 221.917 280.129C217.596 275.496 213.486 270.775 209.518 265.832C206.991 262.784 204.305 259.895 201.609 256.998C199.07 254.255 196.67 251.442 194.335 248.525C190.796 244.124 187.012 240.001 183.135 235.899C182.684 235.421 182.234 234.943 181.769 234.451C181.331 233.987 180.893 233.524 180.442 233.046C179.182 231.652 178.029 230.205 176.87 228.725C175.048 226.176 175.048 226.176 171.972 226.162C167.564 227.834 165.706 230.605 162.833 234.225C161.444 235.774 160.046 237.315 158.64 238.849C156.148 241.501 156.148 241.501 154.232 244.547C153.664 244.547 153.096 244.547 152.511 244.547C152.291 245.051 152.07 245.556 151.843 246.076C150.695 248.162 149.462 249.428 147.727 251.052C144.994 253.706 142.57 256.455 140.201 259.438C136.764 263.723 133.037 267.574 129.093 271.382C126.696 273.803 124.473 276.319 122.245 278.893C119.753 281.738 117.155 284.482 114.558 287.231C113.427 288.433 112.296 289.636 111.165 290.839C110.601 291.438 110.038 292.037 109.457 292.654C106.885 295.391 104.322 298.136 101.764 300.885C101.3 301.382 100.836 301.879 100.359 302.391C97.9153 305.019 95.563 307.692 93.2701 310.454C90.1588 313.999 87.2961 316.38 82.4513 317.12C77.5863 317.353 74.5298 316.724 70.7992 313.357C67.9608 310.14 67.8457 306.972 67.6242 302.858C69.2098 296.452 75.1812 291.565 79.7768 287.123C83.6087 283.397 87.2642 279.611 90.7529 275.561C94.0798 271.761 97.6067 268.142 101.088 264.484C107.19 258.917 107.19 258.917 110.526 251.966C108.291 247.024 104.728 242.197 100.044 239.386C97.5385 238.597 97.5385 238.597 94.8828 239.386C92.0773 241.531 89.8807 244.213 87.5978 246.889C83.6697 251.451 79.4996 255.703 75.2074 259.922C73.8996 261.208 72.5936 262.496 71.2898 263.786C70.4351 264.625 70.4351 264.625 69.5632 265.482C68.1454 266.851 68.1454 266.851 67.3587 268.631C66.791 268.631 66.2234 268.631 65.6385 268.631C65.2987 269.392 65.2987 269.392 64.952 270.169C63.8735 272.153 62.7554 273.419 61.1396 274.987C60.3155 275.797 60.3155 275.797 59.4748 276.624C58.6141 277.457 58.6141 277.457 57.736 278.307C54.4808 281.475 51.2668 284.626 48.3183 288.084C44.0688 293.016 39.4487 297.593 34.8553 302.201C33.2677 303.797 31.6895 305.402 30.1112 307.007C29.0948 308.029 28.0779 309.05 27.0604 310.071C26.5935 310.549 26.1266 311.026 25.6456 311.518C21.8031 315.338 18.6319 317.035 13.2245 317.12C9.13334 317.035 6.84189 316.108 3.7093 313.357C1.21815 310.522 0.357724 308.279 0 304.487C0.551888 297.975 5.78479 293.856 10.2308 289.495C10.8608 288.87 11.4907 288.244 12.1398 287.6C14.1458 285.609 16.1576 283.624 18.1702 281.64C20.1729 279.661 22.1742 277.681 24.173 275.698C25.4132 274.469 26.6557 273.241 27.901 272.016C31.3076 268.643 34.5426 265.179 37.6599 261.536C39.5733 259.343 41.6223 257.332 43.7052 255.299C46.9435 252.109 50.0085 248.831 52.9583 245.373C55.2926 242.746 57.8187 240.318 60.3198 237.851C62.0085 236.138 63.5921 234.386 65.1546 232.559C67.4931 229.83 69.9628 227.29 72.5195 224.764C76.7883 220.54 80.7025 216.099 84.5882 211.526C85.1824 210.839 85.7767 210.151 86.389 209.443C86.9235 208.817 87.4579 208.19 88.0085 207.545C91.4255 204.148 94.2095 202.983 99.0457 202.834C104.423 204.069 108.033 208.559 111.548 212.507C112.017 213.025 112.486 213.543 112.969 214.076C114.113 215.341 115.25 216.611 116.386 217.883C119.391 215.608 121.784 213.304 124.127 210.357C124.797 209.522 125.467 208.687 126.156 207.827C126.52 207.371 126.883 206.915 127.257 206.446C128.956 204.32 130.676 202.211 132.394 200.101C133.83 198.336 135.263 196.568 136.696 194.801C138.583 192.476 140.48 190.16 142.388 187.852C147.969 181.08 153.285 174.164 158.455 167.072C161.416 163.015 164.433 159.021 167.564 155.094C171.745 149.844 175.716 144.452 179.676 139.034C183.768 133.455 187.99 127.989 192.27 122.554C194.918 119.176 197.437 115.769 199.818 112.195C203.458 106.918 206.957 104.277 213.58 105.206Z" fill="#1F3139"/>
<path d="M254.867 8.87208C255.521 9.13805 256.176 9.40401 256.85 9.67803C272.507 16.1581 287.145 24.3414 298.989 36.6549C300.516 38.1792 302.125 39.535 303.786 40.9118C307.488 44.0856 310.437 47.7588 313.456 51.5727C315.023 53.6098 315.023 53.6098 316.796 55.319C316.512 56.4543 316.228 57.5897 315.936 58.7595C246.962 58.7595 177.989 58.7595 106.925 58.7595C107.781 53.6241 107.996 52.856 111.333 49.4056C112.04 48.6605 112.748 47.9154 113.477 47.1478C114.153 46.4381 114.829 45.7285 115.526 44.9974C116.464 43.8913 117.396 42.7807 118.321 41.6644C125.789 33.1475 134.375 26.1274 143.91 20.0537C144.418 19.7244 144.926 19.3951 145.449 19.0559C153.216 14.0485 160.997 10.245 169.714 7.15183C170.294 6.94331 170.873 6.7348 171.47 6.51996C198.733 -2.98301 228.135 -2.01239 254.867 8.87208Z" fill="#FA5947"/>
<path d="M107.357 75.5482C108.288 75.5453 109.218 75.5423 110.176 75.5393C113.304 75.5336 116.431 75.5526 119.558 75.5714C121.796 75.5723 124.034 75.5718 126.271 75.5698C131.094 75.568 135.917 75.5788 140.74 75.5982C147.713 75.6261 154.686 75.6351 161.659 75.6394C172.973 75.647 184.286 75.6699 195.599 75.7024C206.589 75.734 217.579 75.7583 228.569 75.773C229.585 75.7743 229.585 75.7743 230.622 75.7757C234.02 75.7802 237.418 75.7845 240.816 75.7888C269.01 75.8245 297.203 75.8851 325.397 75.9619C326.23 77.6071 327.061 79.2534 327.891 80.9003C328.354 81.817 328.816 82.7337 329.293 83.6782C333.111 91.5464 337.407 102.391 336.578 111.227C335.252 112.554 334.01 112.217 332.161 112.243C331.011 112.261 331.011 112.261 329.838 112.28C328.99 112.289 328.142 112.298 327.268 112.308C326.38 112.32 325.492 112.333 324.577 112.346C316.372 112.454 308.166 112.513 299.961 112.559C294.444 112.59 288.929 112.636 283.413 112.719C278.086 112.798 272.759 112.84 267.432 112.855C265.401 112.867 263.37 112.893 261.339 112.932C258.493 112.984 255.65 112.988 252.803 112.98C251.965 113.006 251.128 113.033 250.265 113.06C246.712 113.006 244.558 112.885 241.873 110.431C240.324 108.464 238.978 106.475 237.664 104.346C232.402 96.7328 226.266 91.0816 217.021 88.8639C206.738 87.7661 198.483 89.285 190.088 95.3686C186.285 98.5757 184.182 101.979 182.142 106.483C180.551 109.245 179.332 110.402 176.595 112.087C173.698 112.583 170.841 112.531 167.909 112.492C166.601 112.494 166.601 112.494 165.267 112.497C162.39 112.499 159.514 112.477 156.637 112.454C154.64 112.449 152.642 112.446 150.645 112.445C146.463 112.438 142.281 112.421 138.099 112.394C132.726 112.36 127.353 112.345 121.979 112.336C116.867 112.328 111.754 112.311 106.642 112.292C105.17 112.288 105.17 112.288 103.667 112.283C100.906 112.273 98.1441 112.258 95.3824 112.24C94.5558 112.237 93.7292 112.235 92.8776 112.233C91.7561 112.223 91.7561 112.223 90.612 112.214C89.9587 112.21 89.3054 112.207 88.6323 112.203C87.1415 112.087 87.1415 112.087 86.2814 111.227C85.2089 100.502 90.1545 86.4652 96.1222 77.5508C99.6242 75.0227 103.145 75.4999 107.357 75.5482Z" fill="#FA5947"/>
<path d="M260.027 129.29C269.866 129.23 279.705 129.184 289.545 129.156C294.113 129.143 298.681 129.124 303.25 129.095C307.656 129.067 312.061 129.052 316.467 129.045C318.151 129.04 319.835 129.031 321.519 129.017C323.871 128.998 326.223 128.996 328.575 128.997C329.276 128.988 329.978 128.978 330.701 128.969C332.638 128.98 332.638 128.98 335.718 129.29C338.895 134.055 337.862 140.628 336.847 146.116C336.489 147.679 336.109 149.238 335.718 150.793C335.575 151.382 335.432 151.972 335.284 152.579C328.029 182.276 328.029 182.276 315.075 192.079C312.298 193.468 309.478 193.435 306.474 192.939C304.324 191.273 304.324 191.273 302.173 188.639C301.099 187.474 300.023 186.309 298.948 185.144C295.684 181.444 292.736 177.563 289.806 173.597C287.086 169.929 284.281 166.329 281.477 162.727C280.953 162.055 280.43 161.383 279.891 160.691C277.218 157.264 274.528 153.854 271.8 150.47C267.4 145.006 263.06 139.43 259.167 133.59C259.49 131.279 259.49 131.279 260.027 129.29Z" fill="#F85648"/>
<path d="M91.9784 129.164C92.6723 129.164 93.3663 129.165 94.0812 129.165C95.1721 129.161 95.1721 129.161 96.285 129.156C98.7015 129.148 101.118 129.146 103.534 129.145C105.207 129.143 106.879 129.14 108.552 129.137C112.062 129.132 115.573 129.13 119.083 129.13C123.591 129.131 128.098 129.119 132.606 129.104C136.061 129.094 139.517 129.093 142.972 129.093C144.634 129.092 146.296 129.088 147.959 129.082C150.28 129.073 152.601 129.076 154.922 129.081C155.614 129.076 156.306 129.071 157.019 129.066C161.776 129.093 161.776 129.093 163.693 131.01C163.693 134.158 162.552 135.792 160.531 138.039C157.641 141.333 154.99 144.771 152.35 148.266C148.841 152.886 145.308 157.481 141.706 162.028C138.302 166.331 134.987 170.694 131.707 175.092C125.498 183.391 125.498 183.391 122.891 186.757C122.147 187.723 122.147 187.723 121.389 188.709C118.119 192.162 115.244 193.22 110.503 193.366C104.23 191.925 100.918 186.555 97.6177 181.509C94.5221 176.452 92.5138 170.998 90.5821 165.415C90.3094 164.635 90.0366 163.854 89.7556 163.05C86.2589 152.248 85.7878 141.413 86.2815 130.15C87.8254 128.606 89.9222 129.176 91.9784 129.164Z" fill="#F75947"/>
</svg>
