<svg width="214" height="273" viewBox="0 0 214 273" fill="none" xmlns="http://www.w3.org/2000/svg">
<path fill-rule="evenodd" clip-rule="evenodd" d="M138.759 7.31042C138.393 4.83386 137.657 3.53869 135.681 1.99621C132.731 0.0607867 130.437 -0.525273 127 0.493648C122.795 2.98584 120.929 6.83093 118.996 11.2052L118.35 12.7024C116.88 16 115.61 19.2261 114.72 22.7299L114.502 23.6382C113.551 23.4318 112.706 23.2018 111.826 22.7831C109.766 21.6665 107.691 20.8262 105.472 20.0791L104.232 19.6747C93.4761 16.1473 82.5411 14.6572 71.2925 16.4037L69.6019 16.6948C65.6597 17.335 61.8118 18.0489 58.0406 19.4089L56.6409 19.9351C45.511 23.8318 35.2278 30.4355 27.2164 39.1107L26.553 39.8394C23.2068 43.5133 20.1011 47.2944 17.3909 51.4708L16.8323 52.3374C16.4952 52.8553 16.159 53.3737 15.8243 53.8929C15.4654 54.4501 15.108 55.0083 14.7532 55.5681L14.055 56.677C12.5125 59.0774 11.3365 61.0052 11.2776 63.9097C12.2757 64.9077 12.9568 65.5887 13.7359 66.1283C15.4095 67.2876 17.5357 67.7936 24.2295 69.3866C24.6612 69.4862 25.0926 69.5862 25.5235 69.6879C26.2271 69.854 26.9295 70.0248 27.6302 70.2064C30.335 70.9116 33.0279 71.4877 35.8108 71.7788C57.2664 72.8685 76.9305 67.5319 93.4009 53.368C94.5506 52.3783 95.7256 51.4303 96.9124 50.4858C90.5413 64.3812 84.3389 78.2906 78.928 92.5922L78.3968 93.9976C77.4349 96.4985 76.553 99.0167 75.7125 101.561L75.1565 103.255C73.1111 109.481 71.0821 115.712 69.0674 121.948L68.6761 123.16C68.032 125.153 67.3895 127.147 66.7571 129.145L66.2171 130.855L66.1702 131.002C65.3155 133.66 64.4864 136.239 64.1719 139.025L64.0472 140.75C53.1605 139.976 41.8338 143.601 32.4861 149.047L31.6448 149.544C18.1885 157.485 7.40606 170.95 2.79033 185.962C-2.12666 203.166 -0.646434 220.955 8.03618 236.667L8.50029 237.494C12.8431 245.232 18.3167 251.785 25.262 257.315L26.553 258.324C33.3304 263.775 41.3765 267.609 49.7247 269.979C67.3768 274.754 85.5025 272.186 101.339 263.271L102.425 262.647L103.453 262.061C104.367 261.534 105.209 261.113 106.207 260.77C106.638 260.667 106.88 260.609 107.11 260.639C107.403 260.678 107.677 260.86 108.3 261.273C114.956 265.822 122.204 268.608 130.007 270.543L131.166 270.822C139.39 272.811 148.59 273.13 156.926 271.63L158.477 271.285C161.045 270.723 163.584 270.092 166.103 269.342C184.48 263.502 198.247 251.193 207.091 234.2L207.543 233.328C212.135 224.846 213.653 215.122 213.728 205.619L213.734 204.571C213.757 202.6 213.762 200.632 213.692 198.662C212.967 185.336 205.886 169.678 196.013 160.592L195.045 159.728C182.661 147.665 168.584 142.239 151.594 140.393L150.608 140.287C149.822 137.994 149.037 135.701 148.253 133.408L147.281 130.566C144.251 121.73 141.397 112.896 138.933 103.885L138.573 102.561C136.739 95.8381 134.937 89.1359 133.702 82.2721L133.481 81.0366C130.941 67.6022 129.692 53.6982 130.986 40.0365L131.166 38.4507C131.938 30.5419 133.6 22.588 136.884 15.307C138.224 12.486 138.926 10.4679 138.759 7.31042ZM113.114 60.2065H112.188C111.88 60.8116 111.571 61.4163 111.262 62.0209C109.131 66.1904 106.999 70.3605 105.264 74.7135C104.917 75.6002 104.56 76.4834 104.198 77.3643L103.595 78.809C103.082 80.0467 102.568 81.2801 102.008 82.4976C100.928 84.8182 100.065 87.184 99.2269 89.6001L99.1104 89.936C98.4483 91.8484 97.7906 93.7478 96.9415 95.5887C94.8611 100.08 93.053 104.734 91.7339 109.504C91.3821 110.876 91.014 112.211 90.4939 113.53C89.4351 116.101 88.5213 118.677 87.7044 121.336L87.2496 122.841C86.1841 126.34 85.1336 129.843 84.1131 133.354L83.7491 134.616C83.0684 136.961 82.44 139.252 82.0999 141.675L83.1517 141.968C88.5752 143.473 94.1885 145.03 99.0298 147.903L100.153 148.619C101.07 149.195 101.986 149.774 102.901 150.354C104.272 151.251 105.615 152.084 107.096 152.785C113.635 147.335 122.04 144.39 130.221 142.462L131.629 142.138C131.705 140.812 131.62 139.79 131.256 138.505L130.731 137.052L130.148 135.41C128.507 130.863 126.926 126.307 125.561 121.668L125.149 120.238C124.507 118.011 123.882 115.785 123.326 113.535C123.053 112.416 122.755 111.312 122.437 110.205C117.864 94.5051 114.346 78.2869 113.219 61.9496L113.114 60.2065Z" fill="#1D1507"/>
<path d="M135.625 160.07C135.67 160.356 135.716 160.642 135.762 160.936C136.409 164.601 137.43 168.579 140.254 171.18C142.988 172.659 145.495 173.473 148.586 173.031C151.209 172.073 153.284 170.679 154.667 168.218C155.532 165.611 155.49 162.796 155.529 160.07C162.899 159.84 171.105 163.92 176.822 168.402C177.193 168.68 177.564 168.958 177.947 169.245C187.475 176.461 193.347 187.097 195.135 198.807C196.629 211.314 194.098 223.933 186.338 234.08C180.093 241.874 172.924 248.139 163.383 251.408C162.778 251.617 162.176 251.835 161.578 252.063C151.898 255.719 138.752 255.435 129.144 251.723C128.473 251.472 128.473 251.472 127.788 251.216C121.358 248.692 116.164 245.238 111.092 240.613C110.778 240.338 110.465 240.063 110.142 239.78C103.23 233.376 97.3282 221.653 96.6322 212.288C96.5672 210.58 96.5425 208.878 96.5396 207.169C96.5389 206.865 96.5383 206.56 96.5376 206.246C96.5474 200.632 97.2935 195.488 99.0565 190.158C99.2343 189.619 99.4122 189.081 99.5954 188.525C103.001 179.526 110.219 171.912 118.035 166.551C118.688 166.09 118.688 166.09 119.355 165.62C120.986 164.59 122.631 163.807 124.4 163.05C124.725 162.91 125.051 162.77 125.386 162.625C132.072 159.79 132.072 159.79 135.625 160.07Z" fill="#E8392E"/>
<path d="M58.3223 160.07C58.3483 160.666 58.3483 160.665 58.3747 161.273C58.5897 165.011 58.7776 167.668 61.2443 170.601C63.6611 172.624 65.6022 173.303 68.7247 173.19C70.9767 172.884 72.7496 172.09 74.3083 170.417C76.0799 168.051 76.8991 165.561 77.5901 162.703C77.7107 162.208 77.8312 161.714 77.9554 161.204C78.0896 160.643 78.0896 160.643 78.2266 160.07C83.0906 160.437 88.1706 162.252 92.1133 165.162C92.5726 166.073 92.5726 166.073 92.5762 167.014C92.0265 167.809 92.0265 167.809 91.1875 168.634C80.5263 180.139 78.1774 197.133 78.7302 212.089C79.3603 224.163 84.21 235.769 91.3611 245.39C91.6093 245.8 91.8576 246.209 92.1133 246.631C91.6504 248.02 91.6504 248.02 90.2166 248.815C89.6073 249.095 88.9953 249.37 88.3813 249.64C88.0627 249.783 87.7442 249.926 87.416 250.074C86.5158 250.476 85.6125 250.87 84.7071 251.26C84.3479 251.415 83.9886 251.57 83.6186 251.73C78.7583 253.674 73.9747 254.253 68.7836 254.193C67.7822 254.182 66.7815 254.183 65.7801 254.186C56.9555 254.169 49.8255 251.656 42.1211 247.557C41.6903 247.333 41.2595 247.109 40.8156 246.879C36.258 244.351 31.7243 240.237 28.6973 235.984C28.6973 235.679 28.6973 235.373 28.6973 235.059C28.3918 235.059 28.0863 235.059 27.7715 235.059C27.0765 234.127 26.4493 233.206 25.8332 232.223C25.5564 231.783 25.5564 231.783 25.2741 231.334C18.7936 220.866 15.8507 207.982 18.6196 195.723C18.9948 194.312 19.4344 192.93 19.9024 191.547C20.036 191.101 20.1697 190.655 20.3074 190.196C22.1758 184.416 25.5719 179.352 29.6231 174.883C29.8258 174.657 30.0285 174.432 30.2374 174.2C37.1599 166.595 47.6771 159.547 58.3223 160.07Z" fill="#E9382E"/>
<path d="M175.023 5.07605C183.353 8.98647 190.613 14.8024 197.334 21.0006C197.8 21.4264 197.8 21.4264 198.275 21.8609C204.257 27.4653 204.257 27.4653 204.751 31.1625C204.793 34.1215 204.514 36.3619 202.744 38.7929C200.553 40.9274 198.401 41.7048 195.367 41.7439C194.904 41.757 194.442 41.7701 193.965 41.7836C190.831 41.3077 188.861 38.8706 186.774 36.681C181.214 31.0069 174.952 26.7606 168.12 22.7581C165.538 21.1788 163.631 19.4269 162.473 16.5742C161.986 13.8974 162.045 11.4155 163.369 8.99435C166.377 4.95647 170.237 3.2926 175.023 5.07605Z" fill="#1D1608"/>
<path d="M128.797 174.709C130.813 176.45 131.813 177.727 132.153 180.409C132.014 182.441 131.467 184.031 130.07 185.529C128.712 186.523 127.313 187.423 125.893 188.325C120.548 191.846 118.864 196.89 117.257 202.841C116.588 205.162 116.021 206.431 113.869 207.748C112.375 208.495 110.86 208.419 109.24 208.211C107.486 207.604 106.267 206.695 105.103 205.231C103.387 199.478 105.163 193.917 107.825 188.769C111.013 182.904 116.068 176.262 122.677 174.16C124.939 173.658 126.664 173.643 128.797 174.709Z" fill="#FEF8EC"/>
<path d="M50.1348 174.709C52.1217 176.465 53.1226 177.737 53.4618 180.409C53.3316 182.424 52.7225 184.017 51.3788 185.529C49.8961 186.7 48.3212 187.722 46.7499 188.77C41.7561 192.289 39.9168 197.324 38.4324 203.063C37.7384 205.164 36.8008 206.263 35.1777 207.748C33.1003 208.441 31.3181 208.569 29.3047 207.632C27.6944 206.414 26.5678 205.526 25.9199 203.582C25.3697 195.446 28.0588 188.916 33.3261 182.752C33.7468 182.231 33.7468 182.231 34.1759 181.7C37.9617 177.172 43.9261 171.663 50.1348 174.709Z" fill="#FEF7EB"/>
</svg>
