<svg width="30" height="30" viewBox="0 0 30 30" fill="none" xmlns="http://www.w3.org/2000/svg">
<path d="M14.1786 0.0972836C14.0782 0.150867 13.9643 0.291524 13.9241 0.405389C13.8303 0.680005 13.8236 6.20581 13.9174 6.45364C14.1117 6.96938 15.0092 6.98278 15.19 6.47373C15.2302 6.34647 15.257 5.24131 15.257 3.43286C15.257 1.00151 15.2436 0.552744 15.1565 0.365202C14.9891 0.0169082 14.547 -0.103655 14.1786 0.0972836Z" fill="#CC3928"/>
<path d="M8.91378 1.26939C8.64586 1.43014 8.53199 1.63778 8.57888 1.899C8.61237 2.11333 9.32905 3.76773 9.98545 5.1609C10.1931 5.60297 10.4208 5.98475 10.5079 6.05173C10.7021 6.18569 10.9834 6.19239 11.238 6.05843C11.6465 5.84409 11.6733 5.46231 11.3317 4.75233C11.1978 4.47771 10.8428 3.67396 10.5347 2.97737C10.2266 2.27408 9.93856 1.61768 9.89168 1.51721C9.79791 1.30958 9.52329 1.13543 9.28217 1.13543C9.19509 1.13543 9.03434 1.19571 8.91378 1.26939Z" fill="#CC3928"/>
<path d="M19.5237 1.25599C19.383 1.34307 19.1821 1.68466 18.7333 2.60898C18.4051 3.28547 18.1372 3.90838 18.1372 3.98206C18.1372 4.18969 18.385 4.54469 18.586 4.62506C18.874 4.73223 19.1821 4.64515 19.3696 4.39733C19.5907 4.10262 20.4815 2.2205 20.5284 1.95928C20.582 1.63108 20.5016 1.41004 20.2605 1.26939C19.9925 1.10194 19.7715 1.10194 19.5237 1.25599Z" fill="#CC3928"/>
<path d="M4.60079 4.13615C4.44673 4.27681 4.38645 4.39737 4.35966 4.6184L4.32617 4.91981L5.09644 5.66998C5.60548 6.17233 5.90689 6.42685 6.00736 6.42685C6.38914 6.42685 6.75753 6.05176 6.77092 5.65658C6.77762 5.48244 6.70394 5.35518 6.38914 5.01358C5.43803 3.95531 5.02946 3.75437 4.60079 4.13615Z" fill="#CC3928"/>
<path d="M22.5578 5.2681C21.8411 5.99817 20.9101 6.96268 20.5015 7.41144C19.7848 8.1884 19.7446 8.24199 19.7446 8.5166C19.7446 9.04574 20.2604 9.40073 20.6957 9.1663C20.7828 9.11272 21.5665 8.33576 22.4305 7.43823C24.8351 4.9332 24.7681 5.00688 24.7681 4.70547C24.7681 4.33708 24.4935 4.01558 24.1318 3.96869L23.8639 3.9352L22.5578 5.2681Z" fill="#CC3928"/>
<path d="M7.91596 7.79321C7.72842 7.98075 7.68823 8.06783 7.68823 8.30895C7.68823 8.95196 8.19058 9.30695 8.78 9.07922C9.61724 8.76441 9.34932 7.56548 8.4451 7.56548C8.19058 7.56548 8.1102 7.59897 7.91596 7.79321Z" fill="#CC3928"/>
<path d="M1.94765 8.48979C1.51228 8.55677 1.29795 9.32034 1.61275 9.66863C1.69313 9.7624 2.26915 10.0772 2.89876 10.3652C3.52836 10.6599 4.60004 11.1556 5.28323 11.4771C5.97312 11.7919 6.62282 12.0531 6.72999 12.0531C6.96441 12.0531 7.25912 11.8053 7.3261 11.5575C7.37299 11.3565 7.25912 10.968 7.09837 10.8207C7.03139 10.7671 6.25443 10.3853 5.3703 9.99013C4.49287 9.58825 3.50157 9.1194 3.16668 8.95865C2.36962 8.55677 2.12179 8.463 1.94765 8.48979Z" fill="#CC3928"/>
<path d="M26.5432 8.67064C25.9337 8.96535 24.9558 9.42081 23.5291 10.0772C21.9618 10.7872 21.7542 10.9412 21.7542 11.3766C21.7542 11.7383 22.0154 12.0531 22.3235 12.0531C22.444 12.0531 22.8392 11.9124 23.2009 11.745C23.5693 11.5708 24.2123 11.2761 24.6343 11.0819C27.6684 9.68872 27.6015 9.72221 27.6818 9.37392C27.7287 9.16628 27.5948 8.7845 27.4273 8.65054C27.2398 8.48979 26.8982 8.49649 26.5432 8.67064Z" fill="#CC3928"/>
<path d="M0.220121 14.2166C-0.0344016 14.4309 -0.0745893 14.8261 0.133047 15.1342L0.293798 15.3686L3.2342 15.3887C4.8551 15.3954 6.24828 15.3887 6.33535 15.3686C6.52289 15.3217 6.75062 14.9667 6.75062 14.7055C6.75062 14.5782 6.67695 14.4443 6.52289 14.2902L6.29516 14.0625H3.34806H0.394267L0.220121 14.2166Z" fill="#CC3928"/>
<path d="M22.6779 14.1696C22.5775 14.2232 22.477 14.3371 22.4569 14.4174C22.3698 14.8394 22.3966 15.027 22.5976 15.2279L22.7784 15.402H25.7322C27.9492 15.3953 28.7128 15.3752 28.7932 15.315C29.1147 15.0671 29.1482 14.5447 28.8602 14.2567L28.6659 14.0624H25.759C23.3276 14.0691 22.832 14.0825 22.6779 14.1696Z" fill="#CC3928"/>
<path d="M5.97986 17.5856C5.61147 17.753 5.02205 18.021 4.67376 18.1817C1.70656 19.5213 1.45874 19.6686 1.45874 20.0973C1.45874 20.5193 1.73336 20.8274 2.10174 20.8274C2.2558 20.8274 3.72265 20.1643 6.66975 18.7644C7.19219 18.5166 7.41992 18.2688 7.41992 17.9339C7.41992 17.6994 7.02474 17.2775 6.8104 17.2775C6.72333 17.2775 6.34824 17.4181 5.97986 17.5856Z" fill="#CC3928"/>
<path d="M21.9278 17.4851C21.7201 17.7329 21.7 18.0879 21.8809 18.3826C21.9747 18.5434 22.2359 18.6907 23.1334 19.0993C23.7563 19.3873 24.8615 19.8897 25.5916 20.2246C26.3149 20.5528 26.9914 20.8274 27.0852 20.8274C27.1857 20.8274 27.3397 20.747 27.4536 20.6332C27.6143 20.4724 27.6478 20.3786 27.6478 20.1241C27.6478 19.7088 27.4737 19.5481 26.5695 19.1395C25.2834 18.5635 24.2051 18.0745 23.341 17.6727C22.8722 17.4583 22.4033 17.2775 22.2962 17.2775C22.1622 17.2775 22.0483 17.3378 21.9278 17.4851Z" fill="#CC3928"/>
<path d="M8.39162 20.3652C8.25096 20.4054 7.58786 21.0216 6.26837 22.3545C4.38624 24.2367 4.33936 24.2902 4.33936 24.5515C4.33936 24.8596 4.46662 25.0739 4.74793 25.2213C5.15651 25.4289 5.24358 25.3686 7.27976 23.3458C8.35143 22.2809 9.21546 21.3699 9.26905 21.2427C9.35612 21.0484 9.35612 20.9949 9.25565 20.7939C9.19537 20.6667 9.1083 20.5327 9.06141 20.4925C8.91406 20.3719 8.59925 20.3117 8.39162 20.3652Z" fill="#CC3928"/>
<path d="M20.0664 20.4256C19.8454 20.5997 19.7181 20.9145 19.7784 21.1422C19.8052 21.2628 20.5085 22.0197 21.7811 23.2856L23.7369 25.2481H24.0383C24.3933 25.2481 24.6143 25.1141 24.7349 24.8194C24.9157 24.3907 24.8554 24.3104 23.1006 22.5689C20.8433 20.3184 20.8166 20.2916 20.4951 20.2916C20.3343 20.2916 20.1669 20.3452 20.0664 20.4256Z" fill="#CC3928"/>
<path d="M10.635 22.6158C10.4809 22.7564 10.2264 23.2923 9.59012 24.8127C8.51845 27.3579 8.51845 27.3646 8.6591 27.6325C8.77967 27.8603 9.07438 28.0612 9.29541 28.0612C9.59682 28.0612 9.81785 27.8737 10.0255 27.4249C10.1393 27.1838 10.2331 26.9762 10.2331 26.9561C10.2331 26.936 10.568 26.1121 10.9699 25.1141C11.3785 24.1161 11.7067 23.2253 11.7067 23.1315C11.7067 22.8971 11.5191 22.5957 11.3249 22.5086C11.0637 22.3881 10.8493 22.4215 10.635 22.6158Z" fill="#CC3928"/>
<path d="M14.0916 22.8703C14.0045 22.9641 13.9174 23.1315 13.8907 23.2454C13.8237 23.6071 13.8438 28.4095 13.9174 28.6774C14.0112 28.9989 14.2055 29.1329 14.5738 29.1329C14.8083 29.1329 14.902 29.0927 15.0628 28.9319L15.2637 28.7377L15.2436 25.938C15.2302 23.6339 15.2034 23.1114 15.1298 22.9909C14.9087 22.6627 14.3461 22.5957 14.0916 22.8703Z" fill="#CC3928"/>
<path d="M18.1372 23.1114C17.8558 23.1717 17.6013 23.4463 17.6013 23.7009C17.6013 23.8013 17.8157 24.384 18.0769 24.9869C18.3381 25.5897 18.6663 26.3532 18.8069 26.6881C19.2289 27.6928 19.2624 27.7598 19.3897 27.8737C19.8116 28.2421 20.5484 27.9206 20.5484 27.3646C20.5484 27.1369 20.5283 27.09 19.5839 24.9534C19.2222 24.1496 18.8806 23.4195 18.8203 23.3325C18.673 23.1315 18.4252 23.0512 18.1372 23.1114Z" fill="#CC3928"/>
<path d="M13.7452 8.21989C12.8075 8.32528 11.6636 8.76 10.8191 9.33305C10.0343 9.87315 9.18309 10.8941 8.74417 11.836C8.03925 13.3312 7.96609 15.3204 8.55797 16.8287C8.95698 17.8496 9.80156 18.9628 10.6927 19.6478C11.1848 20.0233 12.1691 20.4843 12.8474 20.6687C13.5257 20.8466 14.8159 20.9059 15.5141 20.8005C16.1326 20.6951 16.9506 20.425 17.5824 20.1155C19.4444 19.1867 20.7279 17.0922 20.841 14.8C20.8875 13.8845 20.8011 13.2785 20.5085 12.4288C19.9565 10.8216 18.806 9.55041 17.2365 8.80611C16.4651 8.44384 16.0063 8.31211 15.175 8.21331C14.5099 8.14085 14.4501 8.14085 13.7452 8.21989Z" fill="#CC3928"/>
</svg>
