<svg width="177" height="178" viewBox="0 0 177 178" fill="none" xmlns="http://www.w3.org/2000/svg">
<path d="M104.527 3.58809C104.738 3.68532 104.949 3.78255 105.166 3.88273C109.966 6.14684 115.17 9.79021 117.663 14.6062C118.352 15.9143 118.997 16.997 120.025 18.0754C121.596 18.5087 123.078 18.4496 124.688 18.4033C130.378 18.474 135.959 21.6611 140.24 25.1506C140.526 25.3821 140.813 25.6136 141.108 25.8521C146.214 30.1983 149.99 36.7619 150.937 43.4492C150.975 43.975 151.002 44.5017 151.021 45.0285C151.047 45.62 151.047 45.62 151.074 46.2235C151.341 55.0527 148.146 62.9302 142.156 69.3653C141.968 69.5616 141.781 69.7579 141.587 69.9602C142.083 71.4862 142.953 72.5614 143.967 73.7715C147.228 77.8043 149.413 82.3612 151.358 87.1428C151.489 87.4637 151.62 87.7847 151.755 88.1154C154.076 94.1337 154.847 100.335 154.796 106.741C154.79 107.548 154.789 108.354 154.79 109.16C154.78 113.708 154.626 118.126 153.527 122.561C153.438 122.922 153.35 123.282 153.259 123.654C151.948 128.778 149.741 137.135 145.2 140.413C144.192 140.932 143.388 141.07 142.261 141.049C141.281 140.635 140.757 140.287 140.134 139.428C139.108 136.162 141.011 134.452 142.598 131.279C135.594 131.167 128.589 131.056 121.373 130.942C121.373 131.275 121.373 131.609 121.373 131.952C121.626 131.945 121.879 131.938 122.139 131.931C123.294 131.903 124.45 131.885 125.605 131.868C126.202 131.851 126.202 131.851 126.811 131.834C129.122 131.808 130.629 131.878 132.491 133.3C133.304 134.36 133.298 135.362 133.165 136.669C132.74 137.604 132.386 138.18 131.564 138.796C130.513 139.117 129.539 139.07 128.448 139.028C128.469 139.424 128.469 139.424 128.49 139.828C128.448 140.712 128.448 140.712 127.774 141.386C126.804 141.453 125.867 141.478 124.896 141.474C124.595 141.475 124.293 141.476 123.983 141.478C122.967 141.481 121.951 141.48 120.935 141.478C120.209 141.48 119.483 141.482 118.757 141.484C116.781 141.488 114.805 141.488 112.829 141.488C111.182 141.487 109.535 141.489 107.888 141.49C104.004 141.494 100.12 141.494 96.2361 141.492C92.2228 141.49 88.2096 141.494 84.1964 141.502C80.7563 141.508 77.3162 141.51 73.8761 141.508C71.819 141.508 69.762 141.509 67.7049 141.513C65.7713 141.518 63.8379 141.517 61.9043 141.513C61.1929 141.512 60.4815 141.513 59.77 141.516C58.8024 141.519 57.835 141.516 56.8673 141.512C56.5827 141.515 56.298 141.517 56.0047 141.52C55.223 141.512 55.223 141.512 53.9897 141.386C53.3159 140.375 53.3159 140.375 53.3159 139.028C53.0679 139.051 52.8199 139.074 52.5644 139.099C49.996 139.241 49.996 139.241 48.9886 138.684C48.0987 137.745 47.7889 136.74 47.6726 135.49C47.7746 134.316 47.9924 133.694 48.8478 132.876C50.5855 131.482 52.518 131.732 54.6425 131.826C55.0336 131.835 55.4247 131.844 55.8276 131.854C56.7879 131.877 57.7469 131.911 58.7065 131.952C58.7065 131.619 58.7065 131.285 58.7065 130.942C51.7021 131.053 44.6976 131.164 37.4809 131.279C38.3704 133.057 39.2598 134.836 40.1762 136.669C40.1762 138.691 40.1762 138.691 39.3761 139.638C38.202 140.617 37.4023 140.916 35.8433 140.889C34.3878 140.532 33.6019 139.185 32.7641 138.017C32.0541 136.801 31.4542 135.549 30.869 134.269C30.7087 133.923 30.5484 133.578 30.3832 133.222C27.4039 126.728 25.3304 119.65 25.2836 112.451C25.2812 112.205 25.2788 111.96 25.2764 111.707C25.2705 110.917 25.2684 110.127 25.2678 109.337C25.2676 109.066 25.2673 108.796 25.2671 108.517C25.2852 94.9246 29.226 83.0984 37.6836 72.3699C38.2957 71.5653 38.7745 70.8824 39.1655 69.9602C39.01 69.8203 38.8545 69.6805 38.6943 69.5364C33.2036 64.3495 29.5452 57.1498 29.2936 49.5387C29.2872 48.8987 29.2859 48.2586 29.2897 47.6186C29.2913 47.2805 29.293 46.9425 29.2947 46.5942C29.4141 38.9958 32.6253 32.3326 37.8178 26.8352C42.6218 22.3167 49.1219 18.6165 55.8454 18.332C58.7508 18.3033 58.7508 18.3033 61.1965 16.991C61.7765 16.0579 61.7765 16.0579 62.248 15.0458C63.1025 13.319 64.4596 12.0438 65.7817 10.6633C66.1289 10.2783 66.1289 10.2783 66.4832 9.88549C70.8539 5.20662 76.8856 2.55347 82.9643 0.892781C83.2675 0.80896 83.5706 0.72514 83.8829 0.638779C90.9505 -0.965445 98.0814 0.61187 104.527 3.58809Z" fill="#1C0303"/>
<path d="M46.2409 74.3401C47.0029 74.4954 47.0029 74.4954 47.8202 74.8033C48.0925 74.9032 48.3648 75.0031 48.6454 75.106C48.9561 75.2272 48.9561 75.2272 49.2732 75.3508C49.2751 75.575 49.2771 75.7992 49.2791 76.0302C49.3007 78.364 49.3291 80.6977 49.3616 83.0313C49.3728 83.9022 49.3822 84.7731 49.3899 85.6441C49.4012 86.8961 49.4188 88.1479 49.4377 89.3999C49.4398 89.7891 49.442 90.1784 49.4442 90.5795C49.4542 91.1256 49.4542 91.1256 49.4644 91.6829C49.47 92.162 49.47 92.162 49.4757 92.6509C49.6359 93.716 49.9943 94.3595 50.6208 95.2288C51.7689 95.8028 53.0813 95.6142 54.3445 95.613C54.8245 95.6145 54.8245 95.6145 55.3141 95.616C56.3929 95.619 57.4717 95.6195 58.5505 95.62C59.3213 95.6215 60.0921 95.6232 60.8628 95.625C62.9616 95.6295 65.0604 95.6316 67.1591 95.6331C68.4692 95.6341 69.7794 95.6355 71.0895 95.637C74.7158 95.6411 78.3421 95.6446 81.9685 95.6457C82.3167 95.6458 82.3167 95.6458 82.672 95.6459C83.0211 95.646 83.0211 95.646 83.3773 95.6462C83.8489 95.6463 84.3205 95.6465 84.7922 95.6466C85.0261 95.6467 85.2601 95.6468 85.5011 95.6468C89.2919 95.6482 93.0827 95.654 96.8734 95.6619C100.764 95.6699 104.655 95.674 108.545 95.6745C110.73 95.6748 112.915 95.6768 115.1 95.6828C117.155 95.6884 119.21 95.6891 121.265 95.6862C122.02 95.6859 122.775 95.6874 123.53 95.6907C124.559 95.695 125.588 95.693 126.617 95.6895C127.067 95.6936 127.067 95.6936 127.527 95.6977C129.118 95.6849 130.193 95.6003 131.48 94.5549C131.911 93.6933 131.859 93.0842 131.86 92.1196C131.861 91.5681 131.861 91.5681 131.863 91.0055C131.864 90.4074 131.864 90.4074 131.864 89.7973C131.871 88.9597 131.877 88.122 131.884 87.2843C131.894 85.9585 131.901 84.6329 131.901 83.3071C131.903 82.031 131.914 80.7553 131.928 79.4793C131.925 79.0813 131.923 78.6834 131.92 78.2733C131.929 77.7202 131.929 77.7202 131.937 77.1559C131.938 76.831 131.94 76.5061 131.941 76.1713C132.154 75.3508 132.154 75.3508 132.967 74.722C133.839 74.3401 133.839 74.3401 134.516 74.5099C141.848 80.0268 145.819 91.0303 147.234 99.735C148.717 110.268 147.723 121.367 142.935 130.942C135.82 130.942 128.704 130.942 121.373 130.942C121.373 131.275 121.373 131.609 121.373 131.952C121.626 131.945 121.879 131.938 122.139 131.931C123.295 131.903 124.45 131.885 125.605 131.868C126.202 131.851 126.202 131.851 126.811 131.834C129.122 131.808 130.63 131.878 132.491 133.3C133.304 134.36 133.298 135.362 133.165 136.669C132.74 137.604 132.386 138.18 131.564 138.796C130.514 139.117 129.539 139.07 128.448 139.028C128.469 139.424 128.469 139.424 128.49 139.828C128.448 140.712 128.448 140.712 127.774 141.386C126.804 141.453 125.867 141.478 124.897 141.474C124.595 141.475 124.294 141.476 123.983 141.478C122.967 141.481 121.951 141.48 120.935 141.479C120.209 141.48 119.483 141.482 118.757 141.484C116.781 141.488 114.805 141.488 112.829 141.488C111.182 141.487 109.535 141.489 107.888 141.49C104.004 141.494 100.12 141.494 96.2363 141.492C92.2231 141.49 88.2099 141.494 84.1966 141.502C80.7565 141.508 77.3164 141.51 73.8763 141.508C71.8192 141.508 69.7622 141.509 67.7051 141.513C65.7716 141.518 63.8381 141.517 61.9046 141.513C61.1931 141.512 60.4817 141.513 59.7703 141.516C58.8026 141.519 57.8352 141.516 56.8676 141.512C56.4406 141.516 56.4406 141.516 56.0049 141.52C55.2233 141.512 55.2233 141.512 53.9899 141.386C53.3161 140.375 53.3161 140.375 53.3161 139.028C52.9441 139.063 52.9441 139.063 52.5646 139.099C49.9963 139.241 49.9963 139.241 48.9889 138.684C48.099 137.745 47.7891 136.74 47.6728 135.49C47.7749 134.316 47.9927 133.694 48.8481 132.876C50.5857 131.482 52.5182 131.732 54.6427 131.826C55.2294 131.84 55.2294 131.84 55.8278 131.854C56.7881 131.877 57.7471 131.911 58.7067 131.952C58.7067 131.619 58.7067 131.285 58.7067 130.942C51.5911 130.942 44.4755 130.942 37.1442 130.942C36.242 129.137 35.6631 127.533 35.1228 125.614C34.9907 125.149 34.9907 125.149 34.856 124.675C34.0745 121.849 33.5422 119.014 33.1013 116.117C33.0433 115.804 32.9854 115.491 32.9257 115.168C32.0735 109.504 32.5207 103.155 33.7751 97.5872C33.8311 97.3267 33.8872 97.0662 33.9449 96.7978C35.6458 89.0588 39.304 81.6646 44.5564 75.6877C44.7787 75.6877 45.0011 75.6877 45.2302 75.6877C45.2302 75.4654 45.2302 75.243 45.2302 75.0139C45.5637 74.7916 45.8973 74.5692 46.2409 74.3401Z" fill="#E8544E"/>
<path d="M99.8102 9.3157C100.153 9.45389 100.153 9.45389 100.503 9.59487C106.941 12.2919 111.912 17.0967 114.654 23.5556C115.003 24.5687 115.243 25.5792 115.477 26.6247C115.767 27.8513 116.006 28.5575 116.698 29.6358C117.909 30.3464 118.633 30.3499 119.995 30.103C121.129 29.7235 121.508 29.238 122.047 28.1829C122.242 27.2719 122.32 26.4225 122.383 25.4876C128.421 25.6983 133.655 28.3456 137.852 32.6518C142.369 37.5551 143.864 43.0448 143.737 49.5651C143.447 55.6441 139.893 61.0524 135.607 65.1592C131.585 68.6666 126.904 69.767 121.681 69.7154C117.423 69.418 113.739 67.5246 110.823 64.4433C110.018 63.5999 109.607 63.2328 108.507 62.7797C107.168 62.9285 106.785 63.5997 105.875 64.5696C101.939 68.7438 97.3977 71.7232 91.5005 72.0501C85.4871 72.1213 80.7605 70.5341 76.2959 66.3292C75.821 65.8509 75.3557 65.3629 74.9035 64.8631C74.7077 64.6481 74.5118 64.4331 74.31 64.2116C74.1489 64.0201 73.9877 63.8286 73.8217 63.6312C72.7993 62.9646 72.022 63.0677 70.8356 63.2219C69.935 63.8652 69.935 63.8652 69.151 64.7591C66.0095 67.8139 61.6764 69.73 57.2537 69.7075C52.1051 69.6008 48.1029 67.9796 44.2194 64.5696C43.9913 64.3733 43.7633 64.177 43.5284 63.9747C39.8379 60.5637 37.1567 55.3488 36.7423 50.3016C36.5233 43.7113 37.6415 38.393 41.9662 33.1524C46.0689 28.7786 51.1088 26.2485 57.0221 25.4876C57.2445 25.4876 57.4668 25.4876 57.6959 25.4876C57.725 25.6869 57.7541 25.8863 57.7841 26.0916C58.0285 27.4661 58.2794 28.3896 59.0857 29.5516C60.4542 30.4739 61.1181 30.4375 62.7496 30.2044C64.3463 29.0278 64.7987 27.533 65.1923 25.656C66.111 21.8987 67.9515 18.9277 70.4986 16.054C70.6737 15.8473 70.8487 15.6405 71.029 15.4275C78.0957 7.66666 90.282 5.47458 99.8102 9.3157Z" fill="#FDFAF1"/>
<path d="M38.5546 142.649C38.8722 142.652 39.1897 142.654 39.5169 142.657C44.4991 142.734 48.982 144.218 53.6105 145.955C59.4166 148.014 64.842 148.316 70.9681 148.287C71.8498 148.288 72.7315 148.289 73.6132 148.291C75.4999 148.294 77.3865 148.293 79.2732 148.288C82.0045 148.281 84.7358 148.284 87.4672 148.288C91.9052 148.295 96.3432 148.298 100.781 148.296C101.046 148.296 101.311 148.296 101.583 148.296C103.463 148.295 105.342 148.294 107.222 148.293C109.374 148.292 111.525 148.29 113.677 148.29C113.942 148.289 114.207 148.289 114.481 148.289C118.907 148.288 123.334 148.291 127.76 148.299C130.484 148.303 133.208 148.302 135.932 148.296C138.018 148.291 140.104 148.293 142.19 148.298C143.044 148.298 143.897 148.297 144.751 148.293C145.918 148.287 147.085 148.29 148.252 148.295C148.588 148.292 148.924 148.288 149.27 148.285C152.464 148.315 155.171 149.251 157.502 151.483C159.449 153.728 160.05 155.916 159.921 158.867C159.587 161.359 158.372 163.696 156.411 165.307C154.401 166.589 152.709 166.848 150.356 166.823C150.027 166.824 149.698 166.826 149.359 166.828C148.262 166.833 147.165 166.827 146.068 166.822C145.279 166.824 144.49 166.826 143.701 166.828C142.004 166.832 140.308 166.832 138.611 166.829C136.152 166.824 133.693 166.827 131.234 166.832C127.237 166.841 123.241 166.845 119.243 166.845C119.005 166.845 118.766 166.845 118.519 166.845C117.551 166.844 116.583 166.844 115.615 166.844C112.956 166.844 110.296 166.844 107.637 166.845C107.28 166.845 107.28 166.845 106.916 166.846C102.936 166.847 98.9562 166.853 94.9764 166.861C92.3096 166.866 89.6428 166.865 86.9759 166.861C85.3114 166.86 83.647 166.862 81.9826 166.866C81.2148 166.867 80.4471 166.866 79.6794 166.863C71.9102 166.836 65.4793 168.392 58.3752 171.551C57.4977 171.941 56.6177 172.325 55.7378 172.71C55.0936 172.992 54.4497 173.274 53.8059 173.557C46.742 176.651 39.8008 179.21 32.202 176.271C27.1405 173.927 23.6101 170.36 21.5194 165.181C20.3055 161.211 20.4092 156.539 22.138 152.758C24.8841 147.844 28.985 145.145 34.0392 143.011C35.5528 142.623 36.9983 142.633 38.5546 142.649Z" fill="#1B0404"/>
<path d="M139.223 92.34C140.243 92.6306 140.867 93.1161 141.587 93.8811C142.136 94.9796 142.082 95.693 141.924 96.9133C140.988 98.3688 139.723 99.4758 138.415 100.589C137.124 101.71 135.917 102.899 134.715 104.114C134.524 104.306 134.334 104.498 134.137 104.696C133.342 105.501 132.548 106.307 131.756 107.114C131.171 107.708 130.585 108.301 129.998 108.894C129.818 109.078 129.638 109.262 129.453 109.452C129.018 109.89 128.566 110.31 128.111 110.727C127.888 110.727 127.666 110.727 127.437 110.727C127.322 111.019 127.322 111.019 127.205 111.316C126.647 112.273 125.946 112.732 125.078 113.422C124.552 114.001 124.053 114.598 123.552 115.198C122.557 116.37 121.466 117.4 120.277 118.371C119.345 119.05 119.345 119.05 119.014 119.823C118.792 119.823 118.569 119.823 118.34 119.823C118.478 120.161 118.616 120.498 118.759 120.846C118.942 121.298 119.125 121.751 119.309 122.203C119.399 122.424 119.49 122.646 119.584 122.873C120.516 125.181 121.126 127.221 121.078 129.741C121.071 130.158 121.065 130.574 121.059 131.004C121.051 131.317 121.043 131.63 121.035 131.952C121.43 131.942 121.43 131.942 121.833 131.931C123.034 131.903 124.235 131.885 125.436 131.868C125.85 131.857 126.265 131.846 126.691 131.834C129.036 131.809 130.606 131.844 132.49 133.3C133.303 134.36 133.298 135.362 133.164 136.669C132.739 137.604 132.386 138.18 131.564 138.796C130.513 139.117 129.538 139.07 128.448 139.028C128.461 139.292 128.475 139.556 128.49 139.828C128.448 140.712 128.448 140.712 127.774 141.386C126.804 141.453 125.866 141.478 124.896 141.474C124.595 141.475 124.293 141.476 123.983 141.478C122.967 141.481 121.951 141.48 120.935 141.479C120.209 141.48 119.483 141.482 118.757 141.484C116.781 141.488 114.805 141.488 112.828 141.488C111.181 141.487 109.534 141.489 107.887 141.491C104.003 141.494 100.12 141.494 96.2359 141.492C92.2226 141.49 88.2094 141.494 84.1962 141.502C80.7561 141.508 77.316 141.51 73.8759 141.508C71.8188 141.508 69.7617 141.509 67.7047 141.513C65.7711 141.518 63.8377 141.517 61.9041 141.513C61.1927 141.512 60.4813 141.513 59.7698 141.516C58.8022 141.519 57.8348 141.516 56.8671 141.512C56.4401 141.516 56.4401 141.516 56.0045 141.52C55.2228 141.512 55.2228 141.512 53.9895 141.386C53.3157 140.375 53.3157 140.375 53.3157 139.028C52.9437 139.063 52.9437 139.063 52.5642 139.099C49.9958 139.241 49.9958 139.241 48.9884 138.684C48.0985 137.745 47.7887 136.74 47.6724 135.49C47.7749 134.322 47.9891 133.694 48.8371 132.876C50.6112 131.453 52.6454 131.734 54.8107 131.826C55.2179 131.835 55.625 131.844 56.0445 131.854C57.0447 131.877 58.0437 131.911 59.0432 131.952C59.0276 131.614 59.0119 131.276 58.9958 130.927C58.8948 127.765 59.223 125.164 60.3909 122.182C60.4921 121.917 60.5933 121.652 60.6975 121.379C61.0134 120.616 61.3632 119.885 61.7385 119.15C61.8966 118.839 62.0547 118.528 62.2176 118.207C66.6525 110.056 74.2668 105.353 82.8746 102.571C89.3723 101.072 96.4182 102.255 102.341 105.048C103.307 105.38 103.586 105.356 104.527 104.999C105.238 104.417 105.238 104.417 105.926 103.675C106.187 103.407 106.449 103.139 106.719 102.863C106.989 102.581 107.259 102.3 107.538 102.009C108.073 101.454 108.609 100.9 109.147 100.348C109.502 99.9783 109.502 99.9783 109.865 99.6009C110.921 98.6323 111.844 97.9976 113.265 97.7556C114.731 97.9949 115.346 98.4968 116.319 99.6087C116.616 101.004 116.669 101.728 115.928 102.946C114.162 105.063 111.97 106.871 109.917 108.705C110.371 109.749 110.838 110.341 111.728 111.043C112.726 111.866 113.554 112.689 114.297 113.759C114.297 113.981 114.297 114.204 114.297 114.433C114.631 114.433 114.964 114.433 115.308 114.433C115.377 114.254 115.446 114.075 115.518 113.891C116.175 112.75 117.086 111.891 118.016 110.973C118.218 110.771 118.42 110.569 118.629 110.361C119.057 109.934 119.485 109.508 119.915 109.083C120.565 108.439 121.211 107.793 121.858 107.146C123.709 105.301 125.558 103.475 127.55 101.78C128.477 100.975 129.335 100.105 130.195 99.2296C130.445 98.9775 130.445 98.9775 130.7 98.7203C131.029 98.3886 131.357 98.0565 131.685 97.724C132.129 97.2746 132.579 96.83 133.029 96.3856C133.555 95.8521 134.067 95.3031 134.559 94.7379C135.998 93.1315 136.983 92.1011 139.223 92.34Z" fill="#1C0202"/>
<path d="M49.6389 151.799C50.0087 151.914 50.3786 152.03 50.7597 152.149C51.4795 152.376 52.1981 152.607 52.9151 152.843C59.2565 154.869 65.2953 155.395 71.9331 155.362C72.8016 155.363 73.67 155.364 74.5385 155.366C76.3941 155.369 78.2496 155.368 80.1052 155.363C82.7895 155.357 85.4736 155.359 88.1578 155.363C92.5167 155.371 96.8755 155.373 101.234 155.371C101.494 155.371 101.754 155.371 102.022 155.371C103.868 155.37 105.713 155.369 107.559 155.368C109.677 155.367 111.795 155.366 113.913 155.365C114.174 155.365 114.435 155.365 114.704 155.364C119.055 155.363 123.406 155.366 127.757 155.374C130.436 155.378 133.116 155.377 135.795 155.371C137.842 155.366 139.889 155.368 141.937 155.373C142.777 155.373 143.618 155.372 144.458 155.368C145.602 155.363 146.746 155.365 147.89 155.371C148.225 155.367 148.56 155.363 148.905 155.36C151.143 155.382 151.143 155.382 152.237 156.168C152.706 156.884 152.706 156.884 152.895 157.726C152.706 158.569 152.706 158.569 152.046 159.285C150.638 160.152 149.534 160.103 147.911 160.084C147.597 160.086 147.283 160.088 146.959 160.09C145.905 160.094 144.852 160.089 143.798 160.084C143.042 160.085 142.287 160.087 141.531 160.09C139.903 160.094 138.274 160.094 136.646 160.09C134.065 160.085 131.485 160.09 128.904 160.096C125.28 160.103 121.656 160.107 118.031 160.106C117.686 160.106 117.686 160.106 117.334 160.106C116.403 160.106 115.472 160.106 114.541 160.106C111.989 160.106 109.438 160.106 106.886 160.107C106.658 160.107 106.43 160.107 106.195 160.107C102.373 160.109 98.5513 160.114 94.7291 160.122C92.1702 160.127 89.6113 160.127 87.0524 160.123C85.4497 160.121 83.847 160.124 82.2443 160.128C81.5084 160.128 80.7724 160.128 80.0365 160.125C72.341 160.097 65.1659 160.936 58.0328 163.959C57.6106 164.131 57.1881 164.303 56.7654 164.474C54.4787 165.402 52.2087 166.353 49.9629 167.377C45.0651 169.602 40.259 171.566 34.8791 169.7C32.216 168.485 29.8474 166.314 28.7844 163.559C27.9007 160.722 27.5906 158.645 28.8686 155.852C30.4438 152.963 32.585 151.007 35.7517 150.019C40.6154 149.049 45.03 150.35 49.6389 151.799Z" fill="#FDFBF2"/>
<path d="M71.5093 71.9817C72.5322 72.4477 73.3082 73.0032 74.1625 73.7294C80.2483 78.5399 87.2426 79.2256 94.7563 78.72C99.8827 77.9971 104.378 75.3321 108.233 71.9817C108.457 72.112 108.682 72.2423 108.913 72.3765C111.1 73.6122 113.263 74.5642 115.645 75.3508C115.976 75.4768 115.976 75.4768 116.314 75.6054C118.25 76.3152 120.015 76.5371 122.067 76.5932C123.061 76.6279 124.055 76.6627 125.079 76.6985C125.079 80.5898 125.079 84.4812 125.079 88.4905C102.398 88.4905 79.7165 88.4905 56.3481 88.4905C56.3481 84.5991 56.3481 80.7078 56.3481 76.6985C57.9047 76.5873 59.4612 76.4761 61.0649 76.3616C62.1346 76.1483 63.124 75.9317 64.1603 75.6246C64.4148 75.5517 64.6693 75.4788 64.9316 75.4037C67.3025 74.6897 69.7321 73.7589 71.5093 71.9817Z" fill="#FDFAF1"/>
<path d="M104.9 29.8385C110.246 33.5076 113.964 39.0924 115.561 45.3444C115.965 50.3005 115.965 50.3005 114.845 51.6616C113.808 52.5752 113.542 52.7535 112.17 52.8829C110.719 52.7599 110.246 52.4609 109.243 51.4299C108.556 50.3155 108.426 49.2879 108.275 47.9976C107.798 44.7153 106.469 42.293 104.527 39.6379C104.375 39.4295 104.223 39.221 104.066 39.0062C101.436 35.6776 97.4992 33.7922 93.4085 32.8997C87.7894 32.4223 83.2034 33.2248 78.5843 36.6057C78.2461 36.8507 78.2461 36.8507 77.9012 37.1006C76.2907 38.3692 75.2547 39.915 74.2044 41.6594C74.0719 41.877 73.9394 42.0946 73.803 42.3188C72.6642 44.2475 72.1294 45.8108 71.9091 48.0397C71.6447 50.0582 71.3562 51.1004 69.8245 52.4407C68.7399 52.983 67.6282 52.982 66.4553 52.7776C65.3706 51.9237 64.8704 51.3919 64.4339 50.0823C63.9087 44.7361 65.9874 39.2761 69.3573 35.1462C73.4422 30.4272 78.2335 27.2814 84.3118 25.8245C84.5177 25.7652 84.7236 25.706 84.9357 25.645C92.0285 24.1021 98.9143 26.1536 104.9 29.8385Z" fill="#1C0404"/>
<path d="M162.623 10.158C163.487 10.3264 163.487 10.3264 164.203 10.9581C164.902 12.1231 165.204 13.1973 165.565 14.497C166.538 17.5625 168.337 19.9826 171.191 21.4801C172.137 21.9578 173.091 22.4119 174.051 22.8607C174.999 23.3092 175.818 23.7999 176.626 24.4768C176.605 25.4244 176.605 25.4244 176.29 26.4983C175.475 26.9486 174.804 27.2259 173.931 27.509C170.731 28.6469 168.16 29.86 166.57 32.997C165.93 34.5035 165.411 36.0474 164.906 37.6033C164.528 38.5514 164.297 39.0398 163.487 39.6379C162.645 39.7853 162.645 39.7853 161.802 39.6379C160.747 38.5417 160.475 37.3321 160.076 35.8898C159.082 32.6515 157.101 30.2244 154.139 28.525C152.863 27.9503 151.535 27.5538 150.192 27.1695C149.336 26.8352 149.336 26.8352 148.663 25.8245C148.663 24.8137 148.663 24.8137 149 23.803C149.895 23.2058 150.802 22.8722 151.809 22.504C155.117 21.2552 157.505 19.6269 159.107 16.3909C159.521 15.2987 159.881 14.1907 160.207 13.0692C160.661 11.5416 160.979 10.4954 162.623 10.158Z" fill="#1D0505"/>
<path d="M14.2129 32.7733C15.2447 32.8997 15.2447 32.8997 15.7527 33.4156C16.5464 34.7287 16.9924 36.1662 17.4893 37.6099C18.4954 40.429 20.0367 42.6578 22.7266 44.0718C23.483 44.4107 24.244 44.7252 25.0152 45.0286C27.2916 45.9572 27.2916 45.9572 28.0475 46.7131C28.0475 47.7028 28.0475 47.7028 27.7106 48.7346C26.8082 49.3362 25.8851 49.6701 24.8771 50.0573C21.7519 51.2781 19.3105 52.678 17.7992 55.7795C17.2201 57.1502 16.6961 58.5232 16.2357 59.9383C15.9126 60.8809 15.7331 61.3241 14.9078 61.8743C14.0655 62.0427 14.0655 62.0427 13.2233 61.8743C12.3789 60.6809 11.9121 59.4364 11.4334 58.0629C10.0811 54.4796 7.97851 52.0414 4.49376 50.3626C3.77732 50.0774 3.09033 49.9044 2.33672 49.7454C1.09435 49.4084 1.09435 49.4084 0.42052 48.7978C0.00614398 47.8913 -0.0930641 47.3605 0.0836058 46.3762C1.00084 45.5476 1.79913 45.2083 2.98949 44.9233C6.13007 44.0246 8.5465 42.495 10.191 39.6379C11.0394 37.9979 11.7956 36.3497 12.2757 34.5632C12.6368 33.2575 12.8545 32.9467 14.2129 32.7733Z" fill="#1C0505"/>
<path d="M63.4464 98.4322C64.6637 98.7422 65.1204 99.237 65.7819 100.283C66.0682 101.366 66.07 102.23 65.7819 103.315C64.8013 104.876 63.7145 105.873 62.0758 106.684C61.8458 107.13 61.6207 107.579 61.402 108.032C61.0684 108.143 60.7349 108.254 60.3912 108.368C60.1612 108.815 59.9376 109.265 59.7174 109.716C59.2447 110.247 58.7527 110.761 58.2487 111.263C57.9559 111.555 57.6632 111.847 57.3616 112.148C57.055 112.45 56.7484 112.753 56.4325 113.064C55.9804 113.516 55.9804 113.516 55.5191 113.977C54.0471 115.439 52.5632 116.827 50.9576 118.139C50.2204 118.854 49.5033 119.585 48.7901 120.324C48.2787 120.854 47.7652 121.381 47.2516 121.908C47.0805 122.088 46.9093 122.267 46.733 122.452C45.4064 123.805 44.3942 124.454 42.5137 124.646C41.3793 124.525 40.9639 124.345 40.1764 123.53C39.6297 122.566 39.5 121.965 39.5236 120.855C40.1786 118.716 41.8944 117.435 43.5468 116.032C44.1833 115.475 44.7704 114.895 45.3564 114.286C46.2408 113.422 46.2408 113.422 46.9147 113.422C46.9997 113.228 47.0848 113.035 47.1725 112.835C47.6407 111.979 48.1756 111.386 48.854 110.684C49.2439 110.28 49.2439 110.28 49.6418 109.867C49.9236 109.579 50.2054 109.291 50.4957 108.995C50.7867 108.698 51.0777 108.4 51.3775 108.094C51.9941 107.467 52.6118 106.84 53.2306 106.215C53.8633 105.575 54.4913 104.93 55.1155 104.282C56.0179 103.347 56.9299 102.422 57.8446 101.499C58.2602 101.063 58.2602 101.063 58.6841 100.618C60.2233 99.0901 61.2238 98.2603 63.4464 98.4322Z" fill="#1F0101"/>
<path d="M101.495 112.411C101.495 112.634 101.495 112.856 101.495 113.085C101.311 113.155 101.127 113.225 100.938 113.297C97.097 114.866 94.2784 117.34 92.6269 121.2C92.3022 122.083 91.9995 122.967 91.7241 123.866C91.4238 123.799 91.4238 123.799 91.1174 123.731C88.9664 123.273 86.8415 123.014 84.6489 122.856C84.5343 122.525 84.4196 122.195 84.3015 121.854C83.2496 118.9 82.0134 116.163 80.4836 113.426C79.9321 112.411 79.9321 112.411 79.5952 111.401C80.2331 111.125 80.872 110.852 81.5114 110.579C81.8671 110.427 82.2228 110.275 82.5893 110.117C88.2617 107.947 96.5149 108.889 101.495 112.411Z" fill="#FBF9F1"/>
<path d="M53.3159 139.028C78.1094 139.028 102.903 139.028 128.448 139.028C128.448 139.583 128.448 140.139 128.448 140.712C127.569 141.591 126.956 141.469 125.759 141.478C125.332 141.476 125.332 141.476 124.896 141.474C124.444 141.476 124.444 141.476 123.983 141.478C122.967 141.481 121.951 141.48 120.935 141.479C120.209 141.48 119.483 141.482 118.757 141.484C116.781 141.488 114.805 141.488 112.829 141.488C111.182 141.487 109.535 141.489 107.888 141.49C104.004 141.494 100.12 141.494 96.2361 141.492C92.2229 141.49 88.2096 141.494 84.1964 141.502C80.7563 141.508 77.3162 141.51 73.8761 141.508C71.819 141.508 69.762 141.509 67.7049 141.513C65.7714 141.518 63.8379 141.517 61.9044 141.513C61.1929 141.512 60.4815 141.513 59.7701 141.516C58.8024 141.519 57.835 141.516 56.8674 141.512C56.5827 141.515 56.298 141.517 56.0047 141.52C55.2231 141.512 55.2231 141.512 53.9897 141.386C53.3159 140.375 53.3159 140.375 53.3159 139.028Z" fill="#CB3C3D"/>
<path d="M108.633 120.055C111.307 121.572 112.427 123.809 113.623 126.562C113.96 127.909 113.96 127.909 113.96 131.952C108.735 131.952 103.509 131.952 98.1253 131.952C97.2039 129.188 97.2287 127.156 98.4622 124.54C100.631 121.017 104.403 118.069 108.633 120.055Z" fill="#FAF8EF"/>
<path d="M165.024 45.7445C165.845 46.0393 165.845 46.0393 166.519 47.05C166.616 47.4739 166.713 47.8978 166.814 48.3345C167.208 49.9958 167.876 51.2589 169.256 52.3143C170.191 52.7822 170.191 52.7822 171.07 53.0776C171.375 53.1871 171.68 53.2965 171.994 53.4093C172.434 53.5539 172.434 53.5539 172.883 53.7014C173.594 54.1252 173.594 54.1252 173.882 54.9767C173.931 55.8098 173.931 55.8098 173.615 56.3783C172.76 56.9225 171.9 57.0776 170.92 57.2956C169.269 57.7677 168.103 58.7727 167.193 60.1897C166.898 61.1413 166.685 62.0951 166.466 63.0666C166.182 63.8957 166.182 63.8957 165.171 64.5696C164.052 64.4604 163.619 64.3648 162.813 63.5588C162.647 62.9008 162.647 62.9008 162.518 62.1269C162.209 60.6609 161.801 59.6508 160.791 58.5051C159.659 57.9181 158.548 57.5319 157.338 57.1364C156.411 56.8205 156.411 56.8205 155.401 56.1467C155.232 55.3255 155.232 55.3255 155.401 54.4621C156.37 53.6491 157.411 53.3458 158.601 52.9881C160.069 52.5038 160.879 52.0491 161.802 50.7561C162.188 49.7258 162.517 48.696 162.815 47.637C163.273 46.3739 163.618 45.6759 165.024 45.7445Z" fill="#1C0504"/>
<path d="M35.7965 90.175C36.4703 90.8489 36.4703 90.8489 36.4703 91.8596C37.1374 91.8596 37.8045 91.8596 38.4918 91.8596C38.6029 92.3043 38.7141 92.7491 38.8287 93.2073C38.384 93.3185 37.9392 93.4296 37.481 93.5442C37.8146 94.0445 37.8146 94.0445 38.1549 94.5549C37.8213 94.7773 37.4878 94.9997 37.1441 95.2288C37.7 95.5623 38.2559 95.8958 38.8287 96.2395C38.7175 95.7948 38.6063 95.35 38.4918 94.8918C38.8149 94.7459 38.8149 94.7459 39.1445 94.597C39.8907 94.2759 39.8907 94.2759 40.1763 93.5442C40.6211 93.5442 41.0658 93.5442 41.524 93.5442C41.6352 93.9889 41.7464 94.4336 41.8609 94.8918C41.6385 94.8918 41.4162 94.8918 41.1871 94.8918C41.0967 95.2671 41.0064 95.6423 40.9133 96.0289C40.5132 97.2502 40.5132 97.2502 39.5025 97.9241C38.941 97.9241 38.3795 97.9241 37.8179 97.9241C37.4645 97.3728 37.1276 96.8106 36.8072 96.2395C36.5848 96.1283 36.3625 96.0171 36.1334 95.9026C36.4952 96.8848 36.7324 97.5124 37.481 98.261C37.8146 98.261 38.1481 98.261 38.4918 98.261C38.7141 98.261 38.9365 98.261 39.1656 98.261C39.1656 98.7057 39.1656 99.1504 39.1656 99.6086C38.9432 99.6086 38.7209 99.6086 38.4918 99.6086C38.6029 99.9422 38.7141 100.276 38.8287 100.619C39.058 100.453 39.2873 100.286 39.5236 100.114C40.763 99.4811 41.4934 99.4394 42.8716 99.6086C44.1195 100.291 44.7764 100.781 45.567 101.967C45.7138 103.788 45.7006 104.85 44.5562 106.347C44.3339 106.569 44.1115 106.792 43.8824 107.021C43.6474 107.465 43.421 107.913 43.2086 108.368C43.0279 108.299 42.8472 108.229 42.6611 108.158C41.5804 107.987 40.8457 108.317 39.8394 108.705C39.7282 108.372 39.6171 108.038 39.5025 107.695C38.6131 107.695 37.7236 107.695 36.8072 107.695C36.4737 107.027 36.1401 106.36 35.7965 105.673C35.7965 106.007 35.7965 106.34 35.7965 106.684C35.2961 106.851 35.2961 106.851 34.7857 107.021C34.1119 106.347 34.1119 106.347 33.4381 105.336C33.445 105.746 33.452 106.156 33.4591 106.579C33.461 107.668 33.3665 108.655 33.1011 109.716C32.99 109.716 32.8788 109.716 32.7642 109.716C32.5317 102.991 33.6682 96.5599 35.7965 90.175Z" fill="#E55049"/>
<path d="M16.5923 75.6877C17.3925 75.6877 17.3925 75.6877 18.2769 76.0247C18.6826 76.82 18.9889 77.5493 19.2876 78.3831C19.9908 80.1761 20.5951 81.2931 22.3606 82.1549C22.5695 82.2444 22.7784 82.3338 22.9937 82.426C23.3226 82.5706 23.3226 82.5706 23.6583 82.7182C24.2214 82.961 24.7866 83.1993 25.3521 83.4368C25.689 83.7737 25.689 83.7737 25.71 84.637C25.7031 84.908 25.6961 85.179 25.689 85.4583C24.6065 86.0391 23.6703 86.4683 22.4672 86.7427C21.0604 87.2287 20.3469 87.8982 19.6245 89.1643C19.32 89.9487 19.0662 90.7277 18.8414 91.5385C18.6138 92.1965 18.6138 92.1965 17.9399 92.8704C17.0977 92.8072 17.0977 92.8072 16.2554 92.5334C15.5815 91.5227 15.5815 91.5227 15.2867 90.2172C14.9509 88.869 14.6479 88.0753 13.5601 87.1428C12.5247 86.7369 11.4887 86.4036 10.4199 86.0965C9.51709 85.7952 9.51709 85.7952 8.84326 85.1213C8.95435 84.0105 9.05305 83.5639 9.854 82.7629C10.6888 82.5113 11.5294 82.313 12.3782 82.1141C13.8292 81.4926 14.4039 80.422 15.0591 79.0306C15.1967 78.6779 15.3344 78.3253 15.4763 77.9619C16.2289 76.0511 16.2289 76.0511 16.5923 75.6877Z" fill="#1D0504"/>
<path d="M73.1938 115.781C74.5437 116.23 74.9556 117.092 75.6786 118.244C75.8119 118.455 75.9451 118.665 76.0825 118.882C79.0357 123.665 79.0357 123.665 78.8543 125.589C78.5366 126.338 78.143 126.826 77.5948 127.425C76.95 128.136 76.4263 128.788 75.8892 129.594C73.9766 129.385 72.3406 128.71 70.5828 127.973C70.2922 127.857 70.0017 127.741 69.7023 127.622C69.286 127.448 69.286 127.448 68.8613 127.271C68.6096 127.167 68.3578 127.064 68.0984 126.957C67.3191 126.47 67.0891 126.077 66.7925 125.214C67.7288 121.34 70.3779 118.442 73.1938 115.781Z" fill="#F9F6EF"/>
<path d="M118.34 76.3616C120.564 76.4728 122.788 76.5839 125.079 76.6985C125.079 80.5898 125.079 84.4812 125.079 88.4905C122.855 88.4905 120.631 88.4905 118.34 88.4905C118.34 84.4879 118.34 80.4854 118.34 76.3616Z" fill="#DBC6B7"/>
<path d="M13.16 102.872C13.5286 102.863 13.8971 102.853 14.2767 102.843C17.0019 102.821 17.0019 102.821 18.344 103.616C19.3072 104.742 19.3815 105.525 19.3627 107.009C19.2545 107.998 18.8898 108.607 18.2769 109.379C16.7107 110.423 15.1081 110.191 13.2653 110.2C12.7149 110.217 12.7148 110.217 12.1532 110.234C9.4522 110.252 9.4522 110.252 8.1037 109.265C7.13093 107.831 7.01128 106.71 7.15876 104.999C8.7624 102.54 10.4425 102.896 13.16 102.872Z" fill="#1D0403"/>
<path d="M63.7603 76.3616C63.4267 76.3616 63.0932 76.3616 62.7495 76.3616C62.7495 80.3642 62.7495 84.3667 62.7495 88.4905C60.6371 88.4905 58.5246 88.4905 56.3481 88.4905C56.3481 84.5992 56.3481 80.7078 56.3481 76.6985C57.9047 76.5874 59.4612 76.4762 61.0649 76.3616C62.312 76.0499 62.6264 75.9972 63.7603 76.3616Z" fill="#E0C9B7"/>
<path d="M163.95 125.151C164.435 125.145 164.435 125.145 164.929 125.138C165.241 125.138 165.553 125.137 165.874 125.137C166.159 125.135 166.444 125.134 166.738 125.132C167.887 125.251 168.613 125.652 169.467 126.414C170.115 127.678 170.074 128.877 169.888 130.268C169.341 131.492 168.991 131.876 167.867 132.626C166.65 132.781 165.428 132.751 164.203 132.753C163.868 132.761 163.533 132.769 163.188 132.778C160.721 132.788 160.721 132.788 159.399 131.987C158.277 130.723 158.322 129.712 158.334 128.073C158.472 126.908 158.926 126.33 159.781 125.551C161.041 124.921 162.563 125.152 163.95 125.151Z" fill="#220A0A"/>
<path d="M166.877 102.725C167.421 102.72 167.421 102.72 167.975 102.715C169.629 102.739 170.602 102.771 171.981 103.731C172.915 105.175 172.887 106.369 172.584 108.031C171.978 109.02 171.592 109.538 170.562 110.053C169.286 110.143 168.008 110.131 166.73 110.137C166.374 110.144 166.019 110.151 165.653 110.158C165.311 110.16 164.969 110.162 164.616 110.163C164.146 110.168 164.146 110.168 163.667 110.173C162.654 110.031 162.207 109.733 161.465 109.042C160.79 107.793 160.567 106.741 160.792 105.336C162.175 102.664 164.098 102.631 166.877 102.725Z" fill="#1D0404"/>
</svg>
