<svg width="189" height="676" viewBox="0 0 189 676" fill="none" xmlns="http://www.w3.org/2000/svg">
<path d="M91.7629 0.0123778C93.0453 0.0239794 94.3277 0.035581 95.6489 0.0475341C123.618 0.531137 145.195 12.1617 164.74 31.6725C181.566 49.5709 186.105 71.9918 185.767 95.6764C185.498 103.75 184.154 110.77 181.45 118.387C181.077 119.457 180.703 120.527 180.318 121.63C173.899 138.334 162.499 152.084 148.103 162.462C145.455 164.278 145.455 164.278 143.45 166.387C144.094 166.765 144.737 167.143 145.4 167.532C165.985 180.071 181.526 197.557 187.45 221.387C188.309 226.478 188.631 231.452 188.615 236.606C188.611 237.776 188.611 237.776 188.608 238.97C188.52 247.988 187.719 256.919 186.825 265.887C186.697 267.216 186.697 267.216 186.567 268.571C185.008 284.655 182.874 300.639 180.469 316.618C180.22 318.279 179.97 319.941 179.72 321.602C179.602 322.386 179.484 323.171 179.362 323.978C178.615 329.021 178.059 334.051 177.655 339.134C177.351 342.488 176.757 345.766 176.138 349.075C175.871 350.536 175.606 351.997 175.341 353.458C175.199 354.24 175.056 355.023 174.909 355.83C174.036 360.698 173.21 365.573 172.388 370.45C172.226 371.394 172.064 372.338 171.896 373.31C170.965 378.854 170.193 384.395 169.529 389.977C168.442 399.008 166.866 407.936 165.263 416.887C164.956 418.618 164.65 420.348 164.344 422.078C163.707 425.68 163.068 429.281 162.428 432.882C160.971 441.08 159.53 449.281 158.093 457.483C157.65 460.006 157.205 462.529 156.76 465.051C155.582 471.749 154.423 478.443 153.415 485.169C152.402 491.883 151.133 498.537 149.825 505.2C149.568 506.522 149.31 507.844 149.052 509.166C146.057 524.505 142.98 539.828 139.903 555.151C137.628 566.479 135.36 577.809 133.107 589.141C126.016 624.798 126.016 624.798 123.157 634.657C122.287 638.02 121.694 641.407 121.075 644.825C119.182 654.469 116.371 664.91 108.45 671.387C102.25 675.452 95.7468 676.579 88.4504 675.387C81.6783 673.047 76.2965 668.396 72.4504 662.387C70.3373 657.161 68.7552 652.023 67.5833 646.505C67.3434 645.412 67.3434 645.412 67.0988 644.297C66.5855 641.953 66.0804 639.608 65.5754 637.262C65.221 635.636 64.8659 634.01 64.5103 632.384C63.9799 629.96 63.45 627.536 62.9223 625.111C61.5423 618.775 60.1011 612.455 58.6379 606.137C56.8908 598.561 55.3727 590.968 54.0286 583.309C53.6001 580.466 53.6001 580.466 52.4504 578.387C51.9222 575.214 51.4896 572.031 51.0481 568.844C50.5197 565.394 50.5197 565.394 49.4973 562.149C47.8934 556.386 47.112 550.507 46.2141 544.598C45.087 537.509 43.6249 530.537 42.0637 523.532C39.6742 512.758 37.7302 501.945 35.9409 491.058C35.092 485.895 34.2248 480.735 33.3567 475.575C33.1049 474.077 33.1049 474.077 32.848 472.548C31.6622 465.533 30.3618 458.548 28.9504 451.575C25.3248 433.524 22.6962 415.279 19.8338 397.095C18.8636 390.948 17.8648 384.806 16.8333 378.669C14.8423 366.81 13.0825 354.934 11.5129 343.012C11.3365 341.674 11.16 340.337 10.9834 338.999C10.6321 336.336 10.2813 333.673 9.93091 331.009C9.5298 327.986 9.1191 324.964 8.70044 321.942C6.51465 305.976 4.8526 289.951 3.16358 273.926C3.05801 272.934 2.95244 271.942 2.84368 270.92C2.64321 269.036 2.44503 267.151 2.24947 265.267C2.15901 264.419 2.06855 263.572 1.97535 262.699C1.89779 261.96 1.82023 261.221 1.74033 260.46C1.44979 258.383 0.967457 256.418 0.450443 254.387C-1.4842 229.996 2.53447 207.853 17.9504 188.45C19.4291 186.744 20.9281 185.055 22.4504 183.387C23.1092 182.659 23.7679 181.931 24.4465 181.18C30.2059 175.12 36.8685 169.97 44.4504 166.387C43.1994 165.37 43.1994 165.37 41.9231 164.333C21.3024 147.373 5.79982 125.391 2.45044 98.3874C0.196872 73.386 8.21462 51.7874 23.3254 32.0749C40.6673 11.4493 64.9054 -0.298829 91.7629 0.0123778Z" fill="#070606"/>
<path d="M92.7003 181.887C94.3148 181.878 94.3148 181.878 95.962 181.868C115.013 182.169 131.01 189.422 144.614 202.462C151.842 210.31 156.183 219.319 159.45 229.387C159.78 230.377 160.11 231.367 160.45 232.387C160.519 234.282 160.535 236.179 160.513 238.075C160.504 239.069 160.495 240.063 160.485 241.087C160.468 242.226 160.468 242.226 160.45 243.387C159.441 243.413 158.432 243.439 157.392 243.466C137.585 244.168 117.901 246.982 99.4503 254.387C101.111 254.463 101.111 254.463 102.805 254.539C143.287 256.388 143.287 256.388 159.45 258.387C159.307 259.655 159.164 260.922 159.017 262.227C158.435 267.464 157.907 272.706 157.388 277.95C157.297 278.863 157.206 279.777 157.112 280.718C156.891 282.941 156.671 285.164 156.45 287.387C155.877 287.407 155.304 287.427 154.713 287.448C152.042 287.544 149.371 287.653 146.7 287.762C145.799 287.793 144.898 287.824 143.97 287.856C132.823 288.331 122.18 290.535 111.388 293.262C110.389 293.506 109.391 293.75 108.362 294.001C101.547 295.708 95.0054 297.863 88.4503 300.387C110.113 301.715 131.754 302.795 153.45 303.387C152.752 309.927 151.92 316.437 151.013 322.95C150.139 329.257 149.303 335.561 148.575 341.887C147.534 350.433 146.052 358.903 144.611 367.388C143.166 375.908 141.841 384.406 140.845 392.989C140.427 396.588 139.951 400.174 139.45 403.762C139.306 404.801 139.162 405.84 139.013 406.911C138.582 409.571 138.094 412.187 137.552 414.825C136.122 421.855 134.99 428.935 133.825 436.012C133.594 437.412 133.362 438.812 133.13 440.212C132.568 443.603 132.009 446.995 131.45 450.387C130.884 450.392 130.319 450.396 129.736 450.4C110.25 450.644 91.1905 453.318 72.7081 459.688C70.4503 460.387 70.4503 460.387 67.4503 460.387C67.4503 461.047 67.4503 461.707 67.4503 462.387C68.3268 462.364 69.2034 462.341 70.1065 462.317C79.5449 462.183 88.7974 462.752 98.1964 463.601C108.27 464.499 118.346 464.987 128.45 465.387C127.233 473.615 125.864 481.789 124.263 489.95C124.048 491.052 123.834 492.155 123.613 493.291C123.143 495.706 122.673 498.122 122.201 500.538C121.424 504.523 120.653 508.51 119.884 512.497C116.769 528.623 113.608 544.741 110.404 560.85C110.026 562.751 109.65 564.652 109.274 566.553C107.081 577.644 104.761 588.691 102.181 599.699C100.931 605.076 99.8548 610.459 98.9096 615.898C98.2142 619.667 97.2871 623.366 96.3253 627.075C96.1435 627.788 95.9618 628.502 95.7745 629.237C95.3364 630.955 94.8939 632.671 94.4503 634.387C92.5068 631 91.8177 627.782 91.1182 623.954C90.8795 622.675 90.6408 621.397 90.3949 620.079C90.2097 619.068 90.2097 619.068 90.0207 618.037C88.0291 607.184 85.9092 596.385 83.1873 585.688C81.8395 580.323 80.7893 574.932 79.7941 569.49C78.5468 562.751 77.1547 556.044 75.7511 549.337C75.3887 547.603 75.3887 547.603 75.019 545.835C74.0102 541.016 72.9989 536.197 71.9852 531.379C71.2379 527.824 70.4943 524.268 69.7511 520.712C69.4043 519.071 69.4043 519.071 69.0504 517.398C68.8399 516.388 68.6294 515.379 68.4124 514.339C68.1329 513.009 68.1329 513.009 67.8477 511.653C67.4503 509.387 67.4503 509.387 67.4503 506.387C70.2815 504.972 72.9307 504.961 76.0831 504.669C76.7526 504.606 77.4221 504.543 78.1119 504.478C79.5391 504.345 80.9665 504.214 82.3941 504.085C84.5188 503.893 86.6427 503.693 88.7667 503.493C98.3183 502.605 107.873 501.934 117.45 501.387C100 495.535 82.8854 491.865 64.4503 491.387C63.3476 486.859 62.39 482.408 61.9503 477.762C61.5606 473.79 60.5572 470.229 59.4503 466.387C58.0296 459.229 57.1425 452.006 56.2728 444.764C55.6032 439.325 54.7802 433.919 53.8878 428.512C53.7609 427.733 53.634 426.954 53.5033 426.151C52.8724 422.15 52.8724 422.15 51.4503 418.387C51.4503 415.747 51.4503 413.107 51.4503 410.387C71.2503 409.397 91.0503 408.407 111.45 407.387C94.7596 402.252 79.6388 398.446 62.3253 396.762C60.9737 396.627 59.6221 396.492 58.2706 396.356C54.9976 396.029 51.7242 395.706 48.4503 395.387C47.4476 390.068 46.4509 384.748 45.4596 379.427C45.1216 377.618 44.7821 375.809 44.441 374C43.9503 371.397 43.4653 368.793 42.9815 366.188C42.8284 365.383 42.6753 364.577 42.5175 363.748C41.8099 359.908 41.2577 356.312 41.4503 352.387C42.227 352.368 43.0038 352.348 43.804 352.327C59.0155 351.925 74.2021 351.376 89.3878 350.387C90.6769 350.304 91.9661 350.221 93.2943 350.136C99.3782 349.725 105.411 349.234 111.45 348.387C87.3169 340.262 63.7414 337.119 38.4503 335.387C38.3553 334.587 38.2603 333.786 38.1624 332.961C37.6983 329.061 37.2309 325.162 36.7628 321.262C36.6761 320.538 36.5895 319.814 36.5002 319.068C35.4233 310.088 34.294 301.118 33.0714 292.157C32.8999 290.891 32.8999 290.891 32.7249 289.6C32.168 285.493 31.6035 281.388 31.0257 277.283C29.8756 268.933 29.1164 260.842 29.4503 252.387C30.6156 252.338 31.7809 252.289 32.9815 252.239C42.477 251.814 51.9223 251.195 61.3878 250.325C72.4306 249.326 83.3701 249.18 94.4503 249.387C94.4503 248.727 94.4503 248.067 94.4503 247.387C92.9633 247.213 92.9633 247.213 91.4464 247.036C87.3381 246.448 83.4613 245.26 79.5128 244.012C62.9923 239.036 46.6 237.53 29.4503 236.387C29.7589 229.227 30.6544 223.519 34.0753 217.2C34.4343 216.513 34.7933 215.826 35.1632 215.118C37.9833 209.886 41.189 205.545 45.4503 201.387C46.0652 200.715 46.68 200.042 47.3136 199.348C59.6745 186.12 75.1133 181.965 92.7003 181.887Z" fill="#FCFCFC"/>
<path d="M91.7627 0.0124315C93.0451 0.0240331 94.3275 0.0356346 95.6487 0.0475878C123.618 0.531191 145.195 12.1618 164.739 31.6726C181.566 49.571 186.105 71.9918 185.767 95.6765C185.498 103.75 184.154 110.77 181.45 118.387C181.076 119.457 180.703 120.527 180.317 121.63C173.899 138.334 162.499 152.084 148.103 162.462C145.455 164.278 145.455 164.278 143.45 166.387C142.79 167.047 142.13 167.707 141.45 168.387C141.45 167.397 141.45 166.407 141.45 165.387C140.47 165.235 140.47 165.235 139.47 165.079C135.542 164.18 131.892 162.771 128.138 161.325C127.397 161.043 126.657 160.762 125.894 160.471C124.078 159.78 122.264 159.084 120.45 158.387C124.071 152.391 128.035 146.754 132.187 141.116C133.603 139.178 135.002 137.229 136.399 135.278C141.983 127.486 147.628 119.753 153.45 112.137C153.978 111.447 154.505 110.757 155.049 110.045C155.552 109.39 156.056 108.734 156.575 108.059C157.056 107.431 157.536 106.803 158.031 106.156C159.45 104.387 159.45 104.387 160.91 102.848C164.542 98.9924 165.283 95.7091 165.138 90.5749C165.127 89.8708 165.116 89.1666 165.105 88.4411C164.729 80.4968 161.433 76.2249 155.888 70.9499C148.301 66.0868 139.195 66.2782 130.45 67.3874C127.207 68.5827 124.98 70.0747 122.45 72.3874C121.46 73.0474 120.47 73.7074 119.45 74.3874C119.394 72.7941 119.394 72.7941 119.337 71.1687C119.013 57.5858 119.013 57.5858 111.7 46.5749C105.091 41.2413 97.9669 38.6894 89.4502 39.3874C81.5743 41.9121 75.3833 45.9268 71.2952 53.2988C69.7221 57.1874 69.7696 61.1773 69.7002 65.3249C69.6558 66.6369 69.6558 66.6369 69.6104 67.9753C69.5403 70.1122 69.493 72.2498 69.4502 74.3874C68.7902 74.3874 68.1302 74.3874 67.4502 74.3874C66.7902 73.3974 66.1302 72.4074 65.4502 71.3874C63.4468 70.1959 63.4468 70.1959 61.1377 69.2624C60.3785 68.9298 59.6192 68.5973 58.837 68.2546C52.0499 65.7886 43.5756 64.6238 36.8096 67.5163C31.0457 71.1713 27.7063 75.1845 25.2002 81.5749C23.7108 89.1462 23.1267 94.9854 27.3252 101.762C28.6638 103.664 30.0425 105.537 31.4502 107.387C31.8676 107.938 32.2849 108.488 32.7149 109.055C34.4553 111.345 36.1996 113.63 37.9849 115.885C39.8309 118.22 41.5322 120.525 43.0596 123.083C44.3744 125.262 45.6581 126.613 47.4502 128.387C49.0025 130.475 50.5188 132.571 52.0127 134.7C52.8966 135.951 53.7807 137.203 54.6651 138.454C55.12 139.099 55.5748 139.743 56.0435 140.407C57.4586 142.399 58.8908 144.377 60.3292 146.352C60.7893 146.987 61.2494 147.621 61.7234 148.275C62.6128 149.5 63.5054 150.723 64.4017 151.943C67.4502 156.163 67.4502 156.163 67.4502 158.387C65.913 158.894 65.913 158.894 64.3448 159.411C62.9841 159.861 61.6234 160.312 60.2627 160.762C59.5892 160.984 58.9157 161.206 58.2217 161.434C52.7572 163.208 52.7572 163.208 47.4502 165.387C47.1202 166.047 46.7902 166.707 46.4502 167.387C27.7525 158.039 13.4135 135.534 6.45025 116.387C0.0332274 96.7656 -0.181286 73.5636 9.13384 54.7507C22.9319 29.9797 40.1378 11.3681 68.0521 2.56712C76.0103 0.333961 83.5262 -0.0830087 91.7627 0.0124315Z" fill="#B50228"/>
<path d="M92.4502 61.3875C93.4402 61.3875 94.4302 61.3875 95.4502 61.3875C97.519 64.4907 97.7036 65.1835 97.7248 68.7036C97.7344 69.5714 97.7439 70.4392 97.7537 71.3332C97.7528 72.2677 97.7519 73.2021 97.7509 74.1648C97.7552 75.1277 97.7595 76.0906 97.7639 77.0827C97.7697 79.1194 97.7702 81.1561 97.7658 83.1929C97.7627 86.3095 97.7861 89.4252 97.8115 92.5417C97.8138 94.5203 97.8145 96.4988 97.8134 98.4773C97.8227 99.4097 97.8319 100.342 97.8414 101.303C97.7949 107.794 97.7949 107.794 95.9275 111.007C95.1962 111.69 95.1962 111.69 94.4502 112.387C91.7304 106.176 91.0268 101.196 91.122 94.4539C91.1239 93.5353 91.1258 92.6168 91.1277 91.6704C91.1344 89.7451 91.1482 87.8198 91.1689 85.8945C91.2003 82.9344 91.2099 79.9747 91.2158 77.0144C91.2249 75.14 91.2353 73.2657 91.247 71.3914C91.2513 70.5029 91.2555 69.6145 91.2599 68.6991C91.3329 62.5047 91.3329 62.5047 92.4502 61.3875Z" fill="#BD0428"/>
<path d="M133.45 89.3875C136.42 89.3875 139.39 89.3875 142.45 89.3875C139.934 93.9747 137.294 98.0422 134.013 102.137C127.367 110.562 121.437 119.489 115.45 128.387C115.12 127.727 114.79 127.067 114.45 126.387C114.863 125.727 115.275 125.067 115.7 124.387C117.288 121.666 118.054 119.573 118.888 116.575C120.243 111.829 122.076 107.701 124.45 103.387C124.878 102.599 125.306 101.81 125.747 100.997C127.552 97.7058 129.367 94.5126 131.45 91.3875C132.11 91.3875 132.77 91.3875 133.45 91.3875C133.45 90.7275 133.45 90.0675 133.45 89.3875Z" fill="#BF062C"/>
<path d="M46.4502 89.3875C52.2168 89.7335 55.4788 91.3134 59.4502 95.3875C61.54 98.446 61.54 98.446 63.3877 101.825C63.7183 102.426 64.049 103.027 64.3896 103.646C65.4276 105.551 66.4421 107.467 67.4502 109.387C67.7932 110.036 68.1363 110.686 68.4897 111.354C74.4502 122.703 74.4502 122.703 74.4502 126.387C73.7902 126.387 73.1302 126.387 72.4502 126.387C70.867 124.357 69.3999 122.323 67.9502 120.2C64.4739 115.215 60.9275 110.313 57.2002 105.512C56.7853 104.976 56.3704 104.44 55.9429 103.887C54.1285 101.545 52.3091 99.2062 50.4893 96.8679C49.6655 95.7948 49.6655 95.7948 48.8252 94.7C48.3586 94.098 47.8919 93.496 47.4111 92.8757C46.4502 91.3875 46.4502 91.3875 46.4502 89.3875Z" fill="#A50C21"/>
</svg>
